RobotoFlex-wght900.ufo
<glyph name="numbersign" format="2">
  <advance width="1644"/>
  <unicode hex="0023"/>
  <outline>
    <contour>
      <point x="196.53846153846155" y="-20.0" type="line"/>
      <point x="600.3151898734177" y="1474.7848101265822" type="line"/>
      <point x="932.6957935735152" y="1474.7848101265822" type="line"/>
      <point x="529.0421421616359" y="-19.0" type="line"/>
    </contour>
    <contour>
      <point x="710.5530671859785" y="-20.0" type="line"/>
      <point x="1113.7682570593965" y="1474.7848101265822" type="line"/>
      <point x="1446.2719376825705" y="1474.7848101265822" type="line"/>
      <point x="1043.056747809153" y="-20.0" type="line"/>
    </contour>
    <contour>
      <point x="99.69230769230768" y="303.0" type="line"/>
      <point x="99.69230769230768" y="634.2307692307692" type="line"/>
      <point x="1478.341363193768" y="634.2307692307692" type="line"/>
      <point x="1478.341363193768" y="303.0" type="line"/>
    </contour>
    <contour>
      <point x="165.34595910418696" y="823.554040895813" type="line"/>
      <point x="165.34595910418696" y="1151.7848101265822" type="line"/>
      <point x="1543.1180915287246" y="1151.7848101265822" type="line"/>
      <point x="1543.1180915287246" y="823.554040895813" type="line"/>
    </contour>
  </outline>
</glyph>
<glyph name="ampersand" format="2">
  <advance width="1454"/>
  <unicode hex="0026"/>
  <outline>
    <contour>
      <point x="71" y="380.0" type="qcurve" smooth="yes"/>
      <point x="71" y="551"/>
      <point x="279" y="760"/>
      <point x="430" y="840" type="qcurve" smooth="yes"/>
      <point x="671" y="967" type="line" smooth="yes"/>
      <point x="731" y="1005"/>
      <point x="761" y="1061"/>
      <point x="761" y="1108" type="qcurve" smooth="yes"/>
      <point x="761" y="1169"/>
      <point x="724" y="1213"/>
      <point x="680" y="1213" type="qcurve" smooth="yes"/>
      <point x="637" y="1213"/>
      <point x="599" y="1159"/>
      <point x="599" y="1099" type="qcurve" smooth="yes"/>
      <point x="599" y="1047"/>
      <point x="652" y="957"/>
      <point x="715" y="869" type="qcurve" smooth="yes"/>
      <point x="1435" y="0.0" type="line"/>
      <point x="983" y="0.0" type="line"/>
      <point x="421" y="674" type="line" smooth="yes"/>
      <point x="287" y="824"/>
      <point x="183" y="996"/>
      <point x="183" y="1097" type="qcurve" smooth="yes"/>
      <point x="183" y="1280"/>
      <point x="457" y="1486.0"/>
      <point x="681" y="1486.0" type="qcurve" smooth="yes"/>
      <point x="906" y="1486.0"/>
      <point x="1164" y="1291"/>
      <point x="1164" y="1115" type="qcurve" smooth="yes"/>
      <point x="1164" y="986"/>
      <point x="1040" y="819"/>
      <point x="904" y="744" type="qcurve" smooth="yes"/>
      <point x="666" y="620" type="line" smooth="yes"/>
      <point x="568" y="569"/>
      <point x="496" y="472"/>
      <point x="496" y="407" type="qcurve" smooth="yes"/>
      <point x="496" y="339"/>
      <point x="559" y="266"/>
      <point x="625" y="266.0" type="qcurve" smooth="yes"/>
      <point x="743" y="266"/>
      <point x="955" y="484"/>
      <point x="960" y="685" type="qcurve"/>
      <point x="1363" y="685" type="line"/>
      <point x="1363" y="391"/>
      <point x="924" y="-20.0"/>
      <point x="610" y="-20.0" type="qcurve" smooth="yes"/>
      <point x="346" y="-20.0"/>
      <point x="71" y="207"/>
    </contour>
  </outline>
</glyph>
<glyph name="quotesingle" format="2">
	<unicode hex="0027"/>
	<advance width="517"/>
	<outline>
		<contour>
			<point x="112.786037001" y="699.9692307692" type="line"/>
			<point x="72.0769230769" y="1241.3538461538" type="line"/>
			<point x="72.0769230769" y="1456" type="line"/>
			<point x="445.2267575463" y="1456" type="line"/>
			<point x="445.2267575463" y="1241.3538461538" type="line"/>
			<point x="404.3945666991" y="699.9692307692" type="line"/>
		</contour>
	</outline>
</glyph>
<glyph name="parenleft" format="2">
	<unicode hex="0028"/>
	<advance width="815"/>
	<outline>
		<contour>
			<point x="721.4727166504" y="-438" type="line"/>
			<point x="449.571684518" y="-342.5076923077"/>
			<point x="91.9230769231" y="113.0740019474"/>
			<point x="91.9230769231" y="514.8769230769" type="qcurve" smooth="yes"/>
			<point x="91.9230769231" y="525" type="line" smooth="yes"/>
			<point x="91.9230769231" y="890.2965920156"/>
			<point x="415.571684518" y="1364.5076923077"/>
			<point x="720.4727166504" y="1476" type="qcurve"/>
			<point x="720.4727166504" y="1195.6183057449" type="line"/>
			<point x="642.0143192432" y="1126.1068436179"/>
			<point x="499.2188704966" y="820.852775073"/>
			<point x="499.2188704966" y="532" type="qcurve" smooth="yes"/>
			<point x="499.2188704966" y="508" type="line" smooth="yes"/>
			<point x="499.2188704966" y="203.9067185979"/>
			<point x="625.0143192432" y="-83.1068436179"/>
			<point x="721.4727166504" y="-155.6183057449" type="qcurve"/>
		</contour>
	</outline>
</glyph>
<glyph name="asterisk" format="2">
	<unicode hex="002A"/>
	<advance width="1168"/>
	<outline>
		<contour>
			<point x="29.3846153846" y="949.0461538462" type="line"/>
			<point x="149.0494878286" y="1301.7" type="line"/>
			<point x="420.1790808179" y="1179.2692307692" type="line"/>
			<point x="390.1830496592" y="1476" type="line"/>
			<point x="776.9972658228" y="1476" type="line"/>
			<point x="747.2473885102" y="1179.2692307692" type="line"/>
			<point x="1018.3769814995" y="1301.8230769231" type="line"/>
			<point x="1137.9187770204" y="949.1692307692" type="line"/>
			<point x="847.8094683544" y="888.2461538462" type="line"/>
			<point x="1045.7178461538" y="665.7384615385" type="line"/>
			<point x="732.5843271665" y="449.6615384615" type="line"/>
			<point x="583.7747731256" y="708.1153846154" type="line"/>
			<point x="434.9652190847" y="449.6615384615" type="line"/>
			<point x="121.9547770204" y="665.7384615385" type="line"/>
			<point x="319.4939240506" y="888.2461538462" type="line"/>
		</contour>
	</outline>
</glyph>
<glyph name="plus" format="2">
	<unicode hex="002B"/>
	<advance width="1179"/>
	<outline>
		<contour>
			<point x="128.3580525803" y="514.5962999026" type="line"/>
			<point x="128.3580525803" y="835.5809152872" type="line"/>
			<point x="1050.2709639727" y="835.5809152872" type="line"/>
			<point x="1050.2709639727" y="514.5962999026" type="line"/>
		</contour>
		<contour>
			<point x="388.5582083739" y="158.7018500487" type="line"/>
			<point x="388.5582083739" y="1189.2981499513" type="line"/>
			<point x="788.1938851022" y="1189.2981499513" type="line"/>
			<point x="788.1938851022" y="158.7018500487" type="line"/>
		</contour>
	</outline>
</glyph>
<glyph name="period" format="2">
  <advance width="727"/>
  <unicode hex="002E"/>
  <outline>
    <contour>
      <point x="107.75384615384615" y="206.29230769230767" type="qcurve" smooth="yes"/>
      <point x="107.75384615384615" y="300.9538461538462"/>
      <point x="235.30301850048687" y="434.09230769230766"/>
      <point x="353.09406037000974" y="434.09230769230766" type="qcurve" smooth="yes"/>
      <point x="472.76202531645566" y="434.09230769230766"/>
      <point x="599.3111976630963" y="300.9538461538462"/>
      <point x="599.3111976630963" y="206.29230769230767" type="qcurve" smooth="yes"/>
      <point x="599.3111976630963" y="111.35705521472391"/>
      <point x="472.76202531645566" y="-21.630769230769232"/>
      <point x="353.09406037000974" y="-21.630769230769232" type="qcurve" smooth="yes"/>
      <point x="235.30301850048687" y="-21.630769230769232"/>
      <point x="107.75384615384615" y="111.7262859839547"/>
    </contour>
  </outline>
</glyph>
<glyph name="two" format="2">
  <advance width="1156"/>
  <unicode hex="0032"/>
  <outline>
    <contour>
      <point x="39" y="0.0" type="line"/>
      <point x="39" y="232" type="line"/>
      <point x="511" y="796" type="line" smooth="yes"/>
      <point x="577" y="875"/>
      <point x="661" y="1006"/>
      <point x="661" y="1070" type="qcurve" smooth="yes"/>
      <point x="661" y="1122"/>
      <point x="619" y="1176"/>
      <point x="562" y="1176" type="qcurve" smooth="yes"/>
      <point x="505" y="1176"/>
      <point x="458.0" y="1095"/>
      <point x="458" y="997" type="qcurve" smooth="yes"/>
      <point x="458" y="950" type="line"/>
      <point x="26" y="950" type="line"/>
      <point x="26" y="1008" type="line" smooth="yes"/>
      <point x="26" y="1223"/>
      <point x="301" y="1485"/>
      <point x="559" y="1485.0" type="qcurve" smooth="yes"/>
      <point x="849" y="1485"/>
      <point x="1100" y="1270"/>
      <point x="1101" y="1083" type="qcurve" smooth="yes"/>
      <point x="1101" y="932"/>
      <point x="955" y="720"/>
      <point x="854" y="601" type="qcurve" smooth="yes"/>
      <point x="601" y="315" type="line"/>
      <point x="1121" y="315" type="line"/>
      <point x="1121" y="0.0" type="line"/>
    </contour>
  </outline>
</glyph>
<glyph name="three" format="2">
  <advance width="1156"/>
  <unicode hex="0033"/>
  <outline>
    <contour>
      <point x="15" y="423" type="qcurve" smooth="yes"/>
      <point x="15" y="458" type="line"/>
      <point x="442" y="458" type="line"/>
      <point x="442" y="427" type="line" smooth="yes"/>
      <point x="442" y="356"/>
      <point x="491.0" y="273"/>
      <point x="562" y="273" type="qcurve" smooth="yes"/>
      <point x="633" y="273"/>
      <point x="687" y="360"/>
      <point x="687" y="450" type="qcurve" smooth="yes"/>
      <point x="687" y="530"/>
      <point x="621.0" y="609.0"/>
      <point x="531" y="609" type="qcurve" smooth="yes"/>
      <point x="385" y="609" type="line"/>
      <point x="385" y="897" type="line"/>
      <point x="523" y="897" type="line" smooth="yes"/>
      <point x="590" y="897"/>
      <point x="650" y="976"/>
      <point x="650" y="1049" type="qcurve" smooth="yes"/>
      <point x="650" y="1112"/>
      <point x="608" y="1183"/>
      <point x="549" y="1183.0" type="qcurve" smooth="yes"/>
      <point x="492" y="1183"/>
      <point x="453.0" y="1113.0"/>
      <point x="453" y="1044" type="qcurve" smooth="yes"/>
      <point x="453" y="1023" type="line"/>
      <point x="28" y="1023" type="line"/>
      <point x="28" y="1042" type="line" smooth="yes"/>
      <point x="28" y="1228"/>
      <point x="295" y="1486"/>
      <point x="563" y="1486" type="qcurve" smooth="yes"/>
      <point x="850" y="1486"/>
      <point x="1083" y="1257"/>
      <point x="1083.0" y="1119" type="qcurve" smooth="yes"/>
      <point x="1083" y="982"/>
      <point x="972" y="804"/>
      <point x="853" y="766" type="qcurve"/>
      <point x="853" y="762" type="line"/>
      <point x="981" y="735"/>
      <point x="1125" y="556"/>
      <point x="1125" y="424" type="qcurve" smooth="yes"/>
      <point x="1125" y="216"/>
      <point x="846" y="-29"/>
      <point x="553" y="-29" type="qcurve" smooth="yes"/>
      <point x="272" y="-29"/>
      <point x="15" y="219.0"/>
    </contour>
  </outline>
</glyph>
<glyph name="six" format="2">
  <advance width="1156"/>
  <unicode hex="0036"/>
  <outline>
    <contour>
      <point x="25" y="601" type="qcurve" smooth="yes"/>
      <point x="25" y="643" type="line" smooth="yes"/>
      <point x="25" y="1020"/>
      <point x="491.0" y="1456.0"/>
      <point x="970" y="1456" type="qcurve" smooth="yes"/>
      <point x="1004" y="1456" type="line"/>
      <point x="1004" y="1137" type="line"/>
      <point x="973" y="1137" type="line" smooth="yes"/>
      <point x="706" y="1137"/>
      <point x="448" y="922"/>
      <point x="448" y="641" type="qcurve" smooth="yes"/>
      <point x="448" y="595" type="line" smooth="yes"/>
      <point x="448" y="411"/>
      <point x="506" y="268"/>
      <point x="598" y="268" type="qcurve" smooth="yes"/>
      <point x="679" y="268"/>
      <point x="715" y="373"/>
      <point x="715" y="482" type="qcurve" smooth="yes"/>
      <point x="715" y="582"/>
      <point x="672" y="697.0"/>
      <point x="593" y="697.0" type="qcurve" smooth="yes"/>
      <point x="512" y="697"/>
      <point x="446" y="593"/>
      <point x="446" y="498" type="qcurve"/>
      <point x="310" y="498" type="line"/>
      <point x="310" y="718"/>
      <point x="486" y="983"/>
      <point x="692" y="983" type="qcurve" smooth="yes"/>
      <point x="913" y="983"/>
      <point x="1146" y="714"/>
      <point x="1146" y="491" type="qcurve" smooth="yes"/>
      <point x="1146" y="261"/>
      <point x="877" y="-29"/>
      <point x="597" y="-29" type="qcurve" smooth="yes"/>
      <point x="344.0" y="-29"/>
      <point x="25" y="262.0"/>
    </contour>
  </outline>
</glyph>
<glyph name="eight" format="2">
	<unicode hex="0038"/>
	<advance width="1156"/>
	<outline>
		<contour>
			<point x="7" y="390" type="qcurve" smooth="yes"/>
			<point x="7" y="549"/>
			<point x="204" y="730"/>
			<point x="311" y="755" type="qcurve"/>
			<point x="311" y="759" type="line"/>
			<point x="200" y="799"/>
			<point x="55" y="968"/>
			<point x="55" y="1100" type="qcurve" smooth="yes"/>
			<point x="55" y="1265"/>
			<point x="319" y="1485"/>
			<point x="577" y="1485" type="qcurve" smooth="yes"/>
			<point x="835" y="1485"/>
			<point x="1102" y="1263"/>
			<point x="1102" y="1099" type="qcurve" smooth="yes"/>
			<point x="1102" y="968"/>
			<point x="980" y="802"/>
			<point x="866" y="759" type="qcurve"/>
			<point x="866" y="755" type="line"/>
			<point x="975" y="736"/>
			<point x="1149" y="549"/>
			<point x="1149" y="390" type="qcurve" smooth="yes"/>
			<point x="1149" y="193"/>
			<point x="855" y="-29"/>
			<point x="577" y="-29" type="qcurve" smooth="yes"/>
			<point x="300" y="-29"/>
			<point x="7" y="193"/>
		</contour>
		<contour>
			<point x="441" y="426" type="qcurve" smooth="yes"/>
			<point x="441" y="347"/>
			<point x="503" y="257"/>
			<point x="577" y="257" type="qcurve" smooth="yes"/>
			<point x="651" y="257"/>
			<point x="715" y="347"/>
			<point x="715" y="426" type="qcurve" smooth="yes"/>
			<point x="715" y="511"/>
			<point x="662" y="608"/>
			<point x="577" y="608" type="qcurve" smooth="yes"/>
			<point x="492" y="608"/>
			<point x="441" y="511"/>
		</contour>
		<contour>
			<point x="472" y="1046" type="qcurve" smooth="yes"/>
			<point x="472" y="971"/>
			<point x="505" y="881"/>
			<point x="577" y="881" type="qcurve" smooth="yes"/>
			<point x="649" y="881"/>
			<point x="684" y="971"/>
			<point x="684" y="1046" type="qcurve" smooth="yes"/>
			<point x="684" y="1114"/>
			<point x="642" y="1198"/>
			<point x="577" y="1198" type="qcurve" smooth="yes"/>
			<point x="512" y="1198"/>
			<point x="472" y="1114"/>
		</contour>
	</outline>
</glyph>
<glyph name="colon" format="2">
  <advance width="732"/>
  <unicode hex="003A"/>
  <outline>
    <contour>
      <point x="125.01538461538462" y="195.20000000000002" type="qcurve" smooth="yes"/>
      <point x="125.01538461538462" y="283.7767032967033"/>
      <point x="248.66426484907498" y="410.66153846153844"/>
      <point x="365.4319376825706" y="410.66153846153844" type="qcurve" smooth="yes"/>
      <point x="481.3226874391432" y="410.66153846153844"/>
      <point x="606.8484907497566" y="283.7767032967033"/>
      <point x="606.8484907497566" y="195.20000000000002" type="qcurve" smooth="yes"/>
      <point x="606.8484907497566" y="105.04069478908188"/>
      <point x="481.7260720545277" y="-21.630769230769232"/>
      <point x="365.7651684518014" y="-21.630769230769232" type="qcurve" smooth="yes"/>
      <point x="248.92734177215192" y="-21.630769230769232"/>
      <point x="125.01538461538462" y="105.40992555831265"/>
    </contour>
    <contour>
      <point x="125.01538461538462" y="889.3538461538461" type="qcurve" smooth="yes"/>
      <point x="125.01538461538462" y="979.1514113504804"/>
      <point x="248.92734177215192" y="1105.5347692307694"/>
      <point x="365.76516845180134" y="1105.5347692307694" type="qcurve" smooth="yes"/>
      <point x="481.7260720545277" y="1105.5347692307694"/>
      <point x="606.8484907497566" y="979.1514113504804"/>
      <point x="606.8484907497566" y="889.3538461538462" type="qcurve" smooth="yes"/>
      <point x="606.8484907497566" y="799.5810989010989"/>
      <point x="481.3226874391431" y="673.5230769230769"/>
      <point x="365.4319376825706" y="673.5230769230769" type="qcurve" smooth="yes"/>
      <point x="248.66426484907498" y="673.5230769230769"/>
      <point x="125.01538461538462" y="799.9503296703297"/>
    </contour>
  </outline>
</glyph>
<glyph name="less" format="2">
  <advance width="1063"/>
  <unicode hex="003C"/>
  <outline>
    <contour>
      <point x="953" y="150" type="line"/>
      <point x="55" y="535" type="line"/>
      <point x="55" y="813" type="line"/>
      <point x="953" y="1198" type="line"/>
      <point x="953" y="849" type="line"/>
      <point x="508" y="680" type="line"/>
      <point x="953" y="509" type="line"/>
    </contour>
  </outline>
</glyph>
<glyph name="greater" format="2">
  <advance width="1063"/>
  <unicode hex="003E"/>
  <outline>
    <contour>
      <point x="71" y="150" type="line"/>
      <point x="71" y="499" type="line"/>
      <point x="516" y="668" type="line"/>
      <point x="71" y="839" type="line"/>
      <point x="71" y="1198" type="line"/>
      <point x="969" y="813" type="line"/>
      <point x="969" y="535" type="line"/>
    </contour>
  </outline>
</glyph>
<glyph name="H" format="2">
  <advance width="1558"/>
  <unicode hex="0048"/>
  <outline>
    <contour>
      <point x="140.0" y="0.0" type="line"/>
      <point x="140.0" y="1456.0" type="line"/>
      <point x="560.7452307692308" y="1456.0" type="line"/>
      <point x="560.7452307692308" y="906.2846153846154" type="line"/>
      <point x="999.7144615384615" y="906.2846153846154" type="line"/>
      <point x="999.7144615384615" y="1456.0" type="line"/>
      <point x="1420.4596923076924" y="1456.0" type="line"/>
      <point x="1420.4596923076924" y="0.0" type="line"/>
      <point x="999.7144615384615" y="0.0" type="line"/>
      <point x="999.7144615384615" y="594.2076923076922" type="line"/>
      <point x="560.7452307692308" y="594.2076923076922" type="line"/>
      <point x="560.7452307692308" y="0.0" type="line"/>
    </contour>
  </outline>
</glyph>
<glyph name="I" format="2">
	<unicode hex="0049"/>
	<advance width="678"/>
	<outline>
		<contour>
			<point x="127.8769230769" y="0" type="line"/>
			<point x="127.8769230769" y="1456" type="line"/>
			<point x="549.8529230769" y="1456" type="line"/>
			<point x="549.8529230769" y="0" type="line"/>
		</contour>
	</outline>
</glyph>
<glyph name="L" format="2">
	<unicode hex="004C"/>
	<advance width="1169"/>
	<outline>
		<contour>
			<point x="140" y="0" type="line"/>
			<point x="140" y="1456" type="line"/>
			<point x="560.7452307692" y="1456" type="line"/>
			<point x="560.7452307692" y="308.0153846154" type="line"/>
			<point x="1146.8221538462" y="308.0153846154" type="line"/>
			<point x="1146.8221538462" y="0" type="line"/>
		</contour>
	</outline>
</glyph>
<glyph name="P" format="2">
  <advance width="1371"/>
  <unicode hex="0050"/>
  <outline>
    <contour>
      <point x="140.0" y="0.0" type="line"/>
      <point x="140.0" y="1456.0" type="line"/>
      <point x="768" y="1456.0" type="line" smooth="yes"/>
      <point x="1036" y="1456.0"/>
      <point x="1325" y="1209"/>
      <point x="1325" y="956" type="qcurve" smooth="yes"/>
      <point x="1325" y="704"/>
      <point x="1037" y="453"/>
      <point x="767" y="453" type="qcurve" smooth="yes"/>
      <point x="561" y="453" type="line"/>
      <point x="561" y="0.0" type="line"/>
    </contour>
    <contour>
      <point x="561" y="752" type="line"/>
      <point x="712" y="752" type="line" smooth="yes"/>
      <point x="824" y="752"/>
      <point x="905" y="845"/>
      <point x="905" y="955" type="qcurve" smooth="yes"/>
      <point x="905" y="1063"/>
      <point x="824" y="1154"/>
      <point x="712" y="1154" type="qcurve" smooth="yes"/>
      <point x="561" y="1154" type="line"/>
    </contour>
  </outline>
</glyph>
<glyph name="S" format="2">
  <advance width="1341"/>
  <unicode hex="0053"/>
  <outline>
    <contour>
      <point x="58.43076923076923" y="428.79999999999995" type="qcurve" smooth="yes"/>
      <point x="58.43076923076923" y="469.03076923076924" type="line"/>
      <point x="490.92984615384614" y="469.03076923076924" type="line"/>
      <point x="490.92984615384614" y="436.4307692307692" type="line" smooth="yes"/>
      <point x="490.80676923076925" y="354.37692307692305"/>
      <point x="589.5529230769231" y="272.25384615384615"/>
      <point x="678.0913846153846" y="272.25384615384615" type="qcurve" smooth="yes"/>
      <point x="765.3990769230769" y="272.25384615384615"/>
      <point x="859" y="336"/>
      <point x="859" y="391" type="qcurve" smooth="yes"/>
      <point x="859" y="451"/>
      <point x="773" y="517"/>
      <point x="575" y="561" type="qcurve" smooth="yes"/>
      <point x="355" y="610"/>
      <point x="74" y="834"/>
      <point x="73.42493865628042" y="1034.838948393379" type="qcurve" smooth="yes"/>
      <point x="73" y="1251"/>
      <point x="402.16119961051606" y="1484.5230769230768"/>
      <point x="669.9836923076923" y="1484.5230769230768" type="qcurve" smooth="yes"/>
      <point x="936.2618928919183" y="1484.5230769230768"/>
      <point x="1263" y="1246"/>
      <point x="1262.575076923077" y="1034.430769230769" type="qcurve" smooth="yes"/>
      <point x="1262.575076923077" y="996.2923076923076" type="line"/>
      <point x="841.3067692307692" y="996.2923076923076" type="line"/>
      <point x="841.3067692307692" y="1027.4153846153845" type="line" smooth="yes"/>
      <point x="841.3067692307692" y="1096.7307692307693"/>
      <point x="756" y="1182"/>
      <point x="672" y="1182" type="qcurve" smooth="yes"/>
      <point x="588" y="1182"/>
      <point x="509" y="1125"/>
      <point x="509" y="1076" type="qcurve" smooth="yes"/>
      <point x="509" y="1021"/>
      <point x="600" y="977"/>
      <point x="791" y="929" type="qcurve" smooth="yes"/>
      <point x="1008" y="874"/>
      <point x="1292" y="653"/>
      <point x="1292.6846075949368" y="436.0570593962999" type="qcurve" smooth="yes"/>
      <point x="1293" y="201"/>
      <point x="951.722500486855" y="-28.76923076923077"/>
      <point x="679.3221538461538" y="-28.76923076923077" type="qcurve" smooth="yes"/>
      <point x="410.1343992210322" y="-28.76923076923077"/>
      <point x="58" y="195"/>
    </contour>
  </outline>
</glyph>
<glyph name="V" format="2">
  <advance width="1249"/>
  <unicode hex="0056"/>
  <outline>
    <contour>
      <point x="-55.38461538461539" y="1456.0" type="line"/>
      <point x="407.82543719571566" y="1456.0" type="line"/>
      <point x="633" y="555" type="line" smooth="yes"/>
      <point x="639" y="532"/>
      <point x="647" y="490"/>
      <point x="652" y="457" type="qcurve"/>
      <point x="660" y="457" type="line"/>
      <point x="665" y="490"/>
      <point x="674" y="533"/>
      <point x="680" y="555" type="qcurve" smooth="yes"/>
      <point x="916.2420915287245" y="1456.0" type="line"/>
      <point x="1304.658699123661" y="1456.0" type="line"/>
      <point x="864.9202375851996" y="0.5076923076923072" type="line"/>
      <point x="388.3538461538461" y="0.5076923076923072" type="line"/>
    </contour>
  </outline>
</glyph>
<glyph name="X" format="2">
  <advance width="1238"/>
  <unicode hex="0058"/>
  <outline>
    <contour>
      <point x="-18.0" y="0.0" type="line"/>
      <point x="444.7076923076923" y="834.9692307692308" type="line"/>
      <point x="553.160759493671" y="834.9692307692308" type="line"/>
      <point x="846.3530671859786" y="1456.0" type="line"/>
      <point x="1216.9676728334957" y="1456.0" type="line"/>
      <point x="798.4907497565727" y="654.6153846153846" type="line"/>
      <point x="690.5992210321324" y="654.6153846153846" type="line"/>
      <point x="371.6146056475171" y="0.0" type="line"/>
    </contour>
    <contour>
      <point x="1.3692307692307706" y="1456.0" type="line"/>
      <point x="490.7676728334956" y="1456.0" type="line"/>
      <point x="798.4522882181111" y="843.9692307692308" type="line"/>
      <point x="794.9061343719573" y="843.9692307692308" type="line"/>
      <point x="1253.875365141188" y="0.0" type="line"/>
      <point x="753.9153846153846" y="0.0" type="line"/>
      <point x="435.0153846153846" y="636.0615384615385" type="line"/>
      <point x="438.87692307692305" y="636.0615384615385" type="line"/>
    </contour>
  </outline>
</glyph>
<glyph name="bracketleft" format="2">
  <advance width="780"/>
  <unicode hex="005B"/>
  <outline>
    <contour>
      <point x="135.3846153846154" y="-310.0" type="line"/>
      <point x="135.3846153846154" y="1456.0" type="line"/>
      <point x="705.3095618305745" y="1456.0" type="line"/>
      <point x="705.3095618305745" y="1167.230769230769" type="line"/>
      <point x="536.7941772151898" y="1167.230769230769" type="line"/>
      <point x="536.7941772151898" y="-21.230769230769226" type="line"/>
      <point x="705.3095618305745" y="-21.230769230769226" type="line"/>
      <point x="705.3095618305745" y="-310.0" type="line"/>
    </contour>
  </outline>
</glyph>
<glyph name="backslash" format="2">
	<unicode hex="005C"/>
	<advance width="619"/>
	<outline>
		<contour>
			<point x="-115.1538461538" y="1456" type="line"/>
			<point x="219.353067186" y="1456" type="line"/>
			<point x="732.353067186" y="-125" type="line"/>
			<point x="398.4076923077" y="-125" type="line"/>
		</contour>
	</outline>
</glyph>
<glyph name="d" format="2">
  <advance width="1309"/>
  <unicode hex="0064"/>
  <outline>
    <contour>
      <point x="60.76923076923077" y="513.3289230769232" type="qcurve" smooth="yes"/>
      <point x="60.76923076923077" y="545.3289230769232" type="line" smooth="yes"/>
      <point x="61" y="787"/>
      <point x="330.1856475170399" y="1078.4116923076924"/>
      <point x="537.6652190847127" y="1078.4116923076924" type="qcurve" smooth="yes"/>
      <point x="625.3291100292113" y="1078.4116923076924"/>
      <point x="760.1067692307691" y="1016.4116923076923"/>
      <point x="791.7587536514119" y="967.0270769230768" type="qcurve"/>
      <point x="791.7587536514119" y="1526.4" type="line"/>
      <point x="1197.615400194742" y="1526.4" type="line"/>
      <point x="1197.615400194742" y="0.0" type="line"/>
      <point x="803.2818305744888" y="0.0" type="line"/>
      <point x="798.1433690360273" y="106.35384615384615" type="line"/>
      <point x="794.1972151898734" y="106.35384615384615" type="line"/>
      <point x="767.6673768257059" y="49.10769230769231"/>
      <point x="627.2060331061343" y="-20.0"/>
      <point x="539.6652190847127" y="-20.0" type="qcurve" smooth="yes"/>
      <point x="310.5702629016553" y="-20.0"/>
      <point x="61" y="272"/>
    </contour>
    <contour>
      <point x="478" y="484" type="line" smooth="yes"/>
      <point x="478.0" y="383.0"/>
      <point x="565" y="277.0"/>
      <point x="639" y="277.0" type="qcurve" smooth="yes"/>
      <point x="694" y="277"/>
      <point x="770" y="334"/>
      <point x="790" y="381" type="qcurve"/>
      <point x="790" y="678" type="line"/>
      <point x="772" y="726"/>
      <point x="704" y="782"/>
      <point x="641" y="782.0" type="qcurve" smooth="yes"/>
      <point x="569" y="782"/>
      <point x="478" y="675"/>
      <point x="478" y="574" type="qcurve" smooth="yes"/>
    </contour>
  </outline>
</glyph>
<glyph name="k" format="2">
  <advance width="1159"/>
  <unicode hex="006B"/>
  <outline>
    <contour>
      <point x="112" y="0.0" type="line"/>
      <point x="112" y="1526" type="line"/>
      <point x="520" y="1526" type="line"/>
      <point x="520" y="790" type="line"/>
      <point x="725" y="1059" type="line"/>
      <point x="1168" y="1059" type="line"/>
      <point x="520" y="316" type="line"/>
      <point x="520" y="0.0" type="line"/>
    </contour>
    <contour>
      <point x="723" y="0.0" type="line"/>
      <point x="477" y="500" type="line"/>
      <point x="740" y="794" type="line"/>
      <point x="1205" y="0.0" type="line"/>
    </contour>
  </outline>
</glyph>
<glyph name="o" format="2">
  <advance width="1302"/>
  <unicode hex="006F"/>
  <outline>
    <contour>
      <point x="61" y="514" type="qcurve" smooth="yes"/>
      <point x="61" y="546" type="line" smooth="yes"/>
      <point x="61" y="806"/>
      <point x="394" y="1089"/>
      <point x="651" y="1089" type="qcurve" smooth="yes"/>
      <point x="908.0" y="1089.0"/>
      <point x="1241" y="806.0173071162765"/>
      <point x="1241" y="546" type="qcurve" smooth="yes"/>
      <point x="1241" y="514" type="line" smooth="yes"/>
      <point x="1241" y="254"/>
      <point x="908.0" y="-30.0"/>
      <point x="651" y="-30" type="qcurve" smooth="yes"/>
      <point x="394" y="-30"/>
      <point x="61" y="254"/>
    </contour>
    <contour>
      <point x="479" y="579" type="qcurve" smooth="yes"/>
      <point x="479" y="481" type="line" smooth="yes"/>
      <point x="479.0" y="349.0"/>
      <point x="574" y="269"/>
      <point x="651" y="269" type="qcurve" smooth="yes"/>
      <point x="728.0" y="269.0"/>
      <point x="822.0" y="349.0"/>
      <point x="822" y="481" type="qcurve" smooth="yes"/>
      <point x="822" y="579" type="line" smooth="yes"/>
      <point x="822.0" y="710.0"/>
      <point x="723" y="790"/>
      <point x="651" y="790" type="qcurve" smooth="yes"/>
      <point x="578" y="790"/>
      <point x="479.0" y="710.0"/>
    </contour>
  </outline>
</glyph>
<glyph name="p" format="2">
  <advance width="1309"/>
  <unicode hex="0070"/>
  <outline>
    <contour>
      <point x="112" y="-416.0" type="line"/>
      <point x="112" y="1058" type="line"/>
      <point x="500" y="1058" type="line"/>
      <point x="505" y="957" type="line"/>
      <point x="510" y="957" type="line"/>
      <point x="535" y="1013"/>
      <point x="695" y="1080"/>
      <point x="782" y="1080" type="qcurve" smooth="yes"/>
      <point x="989" y="1080"/>
      <point x="1248" y="801"/>
      <point x="1248" y="546" type="qcurve" smooth="yes"/>
      <point x="1248" y="514" type="line" smooth="yes"/>
      <point x="1248" y="261"/>
      <point x="998" y="-20.0"/>
      <point x="801" y="-20.0" type="qcurve" smooth="yes"/>
      <point x="715" y="-20.0"/>
      <point x="551" y="33"/>
      <point x="520" y="87" type="qcurve"/>
      <point x="520" y="-416.0" type="line"/>
    </contour>
    <contour>
      <point x="520" y="390" type="line"/>
      <point x="535" y="342"/>
      <point x="628" y="277"/>
      <point x="684" y="277" type="qcurve" smooth="yes"/>
      <point x="755" y="277"/>
      <point x="831.0" y="364.0"/>
      <point x="831" y="481" type="qcurve" smooth="yes"/>
      <point x="831" y="578" type="line" smooth="yes"/>
      <point x="831.0" y="695.0"/>
      <point x="755" y="782"/>
      <point x="681" y="782.0" type="qcurve" smooth="yes"/>
      <point x="618" y="782"/>
      <point x="540" y="722"/>
      <point x="520" y="678" type="qcurve"/>
    </contour>
  </outline>
</glyph>
<glyph name="q" format="2">
  <advance width="1309"/>
  <unicode hex="0071"/>
  <outline>
    <contour>
      <point x="60.76923076923077" y="513.0307692307692" type="qcurve" smooth="yes"/>
      <point x="60.76923076923077" y="545.0307692307692" type="line" smooth="yes"/>
      <point x="61" y="797"/>
      <point x="330.09795520934756" y="1078.6923076923076"/>
      <point x="527.4021421616358" y="1078.6923076923076" type="qcurve" smooth="yes"/>
      <point x="629.596494644596" y="1078.6923076923076"/>
      <point x="762.073222979552" y="1012.4307692307692"/>
      <point x="794.5310613437197" y="955.9076923076923" type="qcurve"/>
      <point x="797.915676728335" y="955.9076923076923" type="line"/>
      <point x="803.0541382667966" y="1058.6923076923076" type="line"/>
      <point x="1197.2997078870499" y="1058.6923076923076" type="line"/>
      <point x="1197.2997078870499" y="-416.24615384615385" type="line"/>
      <point x="791.2849074975658" y="-416.24615384615385" type="line"/>
      <point x="791.2849074975658" y="95.04245374878286" type="line"/>
      <point x="791.7772151898735" y="94.95384615384616" type="line"/>
      <point x="759.7384615384616" y="37.707692307692305"/>
      <point x="636.5041869522883" y="-20.0"/>
      <point x="528.4021421616359" y="-20.0" type="qcurve" smooth="yes"/>
      <point x="320.482570593963" y="-20.0"/>
      <point x="61" y="262"/>
    </contour>
    <contour>
      <point x="478" y="484" type="line" smooth="yes"/>
      <point x="478" y="372"/>
      <point x="559" y="277"/>
      <point x="629" y="277" type="qcurve" smooth="yes"/>
      <point x="688.0" y="277.0"/>
      <point x="774" y="336.0"/>
      <point x="790" y="391" type="qcurve"/>
      <point x="790" y="678" type="line"/>
      <point x="774" y="722"/>
      <point x="691" y="782"/>
      <point x="629" y="782" type="qcurve" smooth="yes"/>
      <point x="559" y="782"/>
      <point x="478.0" y="685.0"/>
      <point x="478" y="574" type="qcurve" smooth="yes"/>
    </contour>
  </outline>
</glyph>
<glyph name="v" format="2">
  <advance width="1043"/>
  <unicode hex="0076"/>
  <outline>
    <contour>
      <point x="-42.23076923076923" y="1058.4116923076924" type="line"/>
      <point x="379.66944498539436" y="1058.4116923076924" type="line"/>
      <point x="519" y="521" type="line" smooth="yes"/>
      <point x="528" y="485"/>
      <point x="538" y="431"/>
      <point x="542" y="394" type="qcurve"/>
      <point x="549" y="394" type="line"/>
      <point x="553" y="431"/>
      <point x="562" y="484"/>
      <point x="572" y="521" type="qcurve" smooth="yes"/>
      <point x="712.0255735150926" y="1058.4116923076924" type="line"/>
      <point x="1071.4766504381694" y="1058.4116923076924" type="line"/>
      <point x="731.6458812074003" y="0.0" type="line"/>
      <point x="288.85608568646546" y="0.0" type="line"/>
    </contour>
  </outline>
</glyph>
<glyph name="braceleft" format="2">
	<unicode hex="007B"/>
	<advance width="804"/>
	<outline>
		<contour>
			<point x="739.6609230769" y="-312" type="line"/>
			<point x="477.4206153846" y="-314.4615384615"/>
			<point x="121.6335384615" y="-140.0769230769"/>
			<point x="153.8830769231" y="63" type="qcurve" smooth="yes"/>
			<point x="184.3938461538" y="287.3076923077" type="line" smooth="yes"/>
			<point x="199.2861538462" y="386.9769230769"/>
			<point x="136.9172307692" y="449.2461538462"/>
			<point x="83.3" y="449.2461538462" type="qcurve"/>
			<point x="83.3" y="698.7538461538" type="line"/>
			<point x="136.9172307692" y="698.7538461538"/>
			<point x="199.2861538462" y="761.0230769231"/>
			<point x="184.3938461538" y="860.6923076923" type="qcurve" smooth="yes"/>
			<point x="153.8830769231" y="1085" type="line" smooth="yes"/>
			<point x="121.8796923077" y="1286.9692307692"/>
			<point x="477.4206153846" y="1461.2307692308"/>
			<point x="739.6609230769" y="1460" type="qcurve"/>
			<point x="739.6609230769" y="1189.5076923077" type="line"/>
			<point x="699.5544615385" y="1189.5076923077"/>
			<point x="522.5206153846" y="1158.3538461538"/>
			<point x="537.1501538462" y="1035.8461538462" type="qcurve" smooth="yes"/>
			<point x="568.6609230769" y="814" type="line" smooth="yes"/>
			<point x="581.9609230769" y="727.1230769231"/>
			<point x="507.6609230769" y="615"/>
			<point x="405.2224615385" y="574" type="qcurve"/>
			<point x="507.6609230769" y="533"/>
			<point x="581.9609230769" y="420.8769230769"/>
			<point x="568.6609230769" y="334" type="qcurve" smooth="yes"/>
			<point x="537.1501538462" y="112.1538461538" type="line" smooth="yes"/>
			<point x="522.5206153846" y="-10.3538461538"/>
			<point x="699.5544615385" y="-41.5076923077"/>
			<point x="739.6609230769" y="-41.5076923077" type="qcurve"/>
		</contour>
	</outline>
</glyph>
<glyph name="braceright" format="2">
	<unicode hex="007D"/>
	<advance width="804"/>
	<outline>
		<contour>
			<point x="71.7384615385" y="-312.2461538462" type="qcurve"/>
			<point x="71.7384615385" y="-41.7538461538" type="line"/>
			<point x="111.8449230769" y="-41.7538461538"/>
			<point x="253.8787692308" y="-9.6"/>
			<point x="233.2492307692" y="111.9076923077" type="qcurve" smooth="yes"/>
			<point x="192.7384615385" y="333.7538461538" type="line" smooth="yes"/>
			<point x="175.4384615385" y="419.6307692308"/>
			<point x="263.7384615385" y="532.7538461538"/>
			<point x="366.1769230769" y="573.7538461538" type="qcurve"/>
			<point x="263.7384615385" y="614.7538461538"/>
			<point x="175.4384615385" y="727.8769230769"/>
			<point x="192.7384615385" y="813.7538461538" type="qcurve" smooth="yes"/>
			<point x="233.2492307692" y="1035.6" type="line" smooth="yes"/>
			<point x="253.8787692308" y="1157.1076923077"/>
			<point x="111.8449230769" y="1189.2615384615"/>
			<point x="71.7384615385" y="1189.2615384615" type="qcurve"/>
			<point x="71.7384615385" y="1459.7538461538" type="line"/>
			<point x="333.9787692308" y="1462.2153846154"/>
			<point x="657.7658461538" y="1286.8307692308"/>
			<point x="616.5163076923" y="1084.7538461538" type="qcurve" smooth="yes"/>
			<point x="576.0055384615" y="860.4461538462" type="line" smooth="yes"/>
			<point x="557.1132307692" y="761.7769230769"/>
			<point x="674.4821538462" y="698.5076923077"/>
			<point x="728.0993846154" y="698.5076923077" type="qcurve"/>
			<point x="728.0993846154" y="449" type="line"/>
			<point x="674.4821538462" y="449"/>
			<point x="557.1132307692" y="385.7307692308"/>
			<point x="576.0055384615" y="287.0615384615" type="qcurve" smooth="yes"/>
			<point x="616.5163076923" y="62.7538461538" type="line" smooth="yes"/>
			<point x="657.5196923077" y="-138.2153846154"/>
			<point x="333.9787692308" y="-313.4769230769"/>
		</contour>
	</outline>
</glyph>
<glyph name="asciitilde" format="2">
  <advance width="1300"/>
  <unicode hex="007E"/>
  <outline>
    <contour>
      <point x="143.16923076923078" y="416.38461538461536" type="qcurve"/>
      <point x="143.16923076923078" y="808.2923076923078" type="line"/>
      <point x="192.8" y="870.1384615384616"/>
      <point x="333.4307692307693" y="937.3846153846154"/>
      <point x="406.0153846153846" y="938.2615384615385" type="qcurve" smooth="yes"/>
      <point x="466.0" y="939.1384615384616"/>
      <point x="601.8153846153846" y="888.4769230769231"/>
      <point x="670.6307692307693" y="850.9692307692308" type="qcurve" smooth="yes"/>
      <point x="731.8" y="817.723076923077"/>
      <point x="852.7384615384616" y="774.2153846153847"/>
      <point x="906.6" y="774.2153846153847" type="qcurve" smooth="yes"/>
      <point x="975.6" y="774.2153846153847"/>
      <point x="1107.2615384615385" y="852.876923076923"/>
      <point x="1158.4923076923078" y="922.7538461538462" type="qcurve"/>
      <point x="1158.4923076923078" y="522.9384615384615" type="line"/>
      <point x="1110.3384615384616" y="465.4"/>
      <point x="979.676923076923" y="399.12307692307695"/>
      <point x="907.8461538461538" y="399.12307692307695" type="qcurve" smooth="yes"/>
      <point x="845.9846153846154" y="399.12307692307695"/>
      <point x="705.9538461538461" y="450.03076923076924"/>
      <point x="632.5538461538462" y="490.53846153846155" type="qcurve" smooth="yes"/>
      <point x="573.123076923077" y="523.0461538461539"/>
      <point x="454.67692307692306" y="561.6923076923077"/>
      <point x="403.1846153846154" y="561.6923076923077" type="qcurve" smooth="yes"/>
      <point x="329.4923076923077" y="561.6923076923077"/>
      <point x="191.81538461538463" y="483.55384615384617"/>
    </contour>
  </outline>
</glyph>
<glyph name="exclamdown" format="2">
	<unicode hex="00A1"/>
	<advance width="758"/>
	<outline>
		<contour>
			<point x="623" y="962" type="qcurve" smooth="yes"/>
			<point x="623" y="876"/>
			<point x="498" y="753"/>
			<point x="380" y="753" type="qcurve" smooth="yes"/>
			<point x="262" y="753"/>
			<point x="135" y="876"/>
			<point x="135" y="962" type="qcurve" smooth="yes"/>
			<point x="135" y="1049"/>
			<point x="261" y="1172"/>
			<point x="379" y="1172" type="qcurve" smooth="yes"/>
			<point x="498" y="1172"/>
			<point x="623" y="1049"/>
		</contour>
		<contour>
			<point x="559" y="633" type="line"/>
			<point x="589" y="-306" type="line"/>
			<point x="169" y="-306" type="line"/>
			<point x="201" y="633" type="line"/>
		</contour>
	</outline>
</glyph>
<glyph name="cent" format="2">
	<unicode hex="00A2"/>
	<advance width="1205"/>
	<outline>
		<contour>
			<point x="641" y="420" type="qcurve" smooth="yes"/>
			<point x="724" y="420"/>
			<point x="780" y="499"/>
			<point x="780" y="551" type="qcurve"/>
			<point x="1178" y="551" type="line"/>
			<point x="1178" y="375"/>
			<point x="897" y="132"/>
			<point x="647" y="132" type="qcurve" smooth="yes"/>
			<point x="390" y="132"/>
			<point x="61" y="415"/>
			<point x="61" y="676" type="qcurve" smooth="yes"/>
			<point x="61" y="708" type="line" smooth="yes"/>
			<point x="61" y="969"/>
			<point x="389" y="1251"/>
			<point x="647" y="1251" type="qcurve" smooth="yes"/>
			<point x="896" y="1251"/>
			<point x="1160" y="1019"/>
			<point x="1167" y="835" type="qcurve"/>
			<point x="781" y="835" type="line"/>
			<point x="781" y="897"/>
			<point x="706" y="962"/>
			<point x="642" y="962" type="qcurve" smooth="yes"/>
			<point x="566" y="962"/>
			<point x="479" y="857"/>
			<point x="479" y="741" type="qcurve" smooth="yes"/>
			<point x="479" y="643" type="line" smooth="yes"/>
			<point x="479" y="526"/>
			<point x="559" y="420"/>
		</contour>
		<contour>
			<point x="559" y="0" type="line"/>
			<point x="559" y="237" type="line"/>
			<point x="564" y="251" type="line"/>
			<point x="564" y="708" type="line"/>
			<point x="704" y="708" type="line"/>
			<point x="704" y="250" type="line"/>
			<point x="709" y="240" type="line"/>
			<point x="709" y="0" type="line"/>
		</contour>
		<contour>
			<point x="564" y="708" type="line"/>
			<point x="564" y="1182" type="line"/>
			<point x="559" y="1192" type="line"/>
			<point x="559" y="1402" type="line"/>
			<point x="709" y="1402" type="line"/>
			<point x="709" y="1192" type="line"/>
			<point x="704" y="1179" type="line"/>
			<point x="704" y="708" type="line"/>
		</contour>
	</outline>
</glyph>
<glyph name="currency" format="2">
  <advance width="1336"/>
  <unicode hex="00A4"/>
  <guideline x="0" y="901.0" angle="0" identifier="bRYxxRaQQf"/>
  <guideline x="0" y="555.0" angle="0" identifier="917FhrihjR"/>
  <outline>
    <contour>
      <point x="415" y="712" type="qcurve"/>
      <point x="415" y="599"/>
      <point x="561" y="448"/>
      <point x="665" y="448" type="qcurve" smooth="yes"/>
      <point x="768" y="448"/>
      <point x="913" y="599"/>
      <point x="913" y="712" type="qcurve" smooth="yes"/>
      <point x="913" y="823"/>
      <point x="768" y="974"/>
      <point x="665" y="974" type="qcurve" smooth="yes"/>
      <point x="561" y="974"/>
      <point x="415" y="823"/>
    </contour>
    <contour>
      <point x="125" y="718" type="qcurve"/>
      <point x="125" y="952"/>
      <point x="446" y="1269"/>
      <point x="664" y="1269" type="qcurve" smooth="yes"/>
      <point x="882" y="1269"/>
      <point x="1203" y="952"/>
      <point x="1203" y="718" type="qcurve" smooth="yes"/>
      <point x="1203" y="486"/>
      <point x="882" y="165"/>
      <point x="664" y="165" type="qcurve" smooth="yes"/>
      <point x="446" y="165"/>
      <point x="125" y="486"/>
    </contour>
    <contour>
      <point x="1256" y="1217" type="line"/>
      <point x="1036" y="992" type="line"/>
      <point x="903" y="1131" type="line"/>
      <point x="1123" y="1356" type="line"/>
    </contour>
    <contour>
      <point x="402" y="319" type="line"/>
      <point x="182" y="94" type="line"/>
      <point x="50" y="232" type="line"/>
      <point x="270" y="456" type="line"/>
    </contour>
    <contour>
      <point x="1152" y="102" type="line"/>
      <point x="932" y="327" type="line"/>
      <point x="1066" y="464" type="line"/>
      <point x="1286" y="241" type="line"/>
    </contour>
    <contour>
      <point x="289" y="1007" type="line"/>
      <point x="69" y="1232" type="line"/>
      <point x="201" y="1370" type="line"/>
      <point x="421" y="1145" type="line"/>
    </contour>
  </outline>
</glyph>
<glyph name="ordfeminine" format="2">
	<unicode hex="00AA"/>
	<advance width="916"/>
	<outline>
		<contour>
			<point x="544" y="811" type="line" smooth="yes"/>
			<point x="544" y="789"/>
			<point x="568" y="723"/>
			<point x="581" y="706" type="qcurve"/>
			<point x="867" y="706" type="line"/>
			<point x="852" y="744"/>
			<point x="833" y="826"/>
			<point x="833" y="887" type="qcurve" smooth="yes"/>
			<point x="833" y="1220" type="line" smooth="yes"/>
			<point x="833" y="1355"/>
			<point x="641" y="1477"/>
			<point x="477" y="1477" type="qcurve" smooth="yes"/>
			<point x="314" y="1477"/>
			<point x="97" y="1346"/>
			<point x="97" y="1234" type="qcurve" smooth="yes"/>
			<point x="97" y="1215" type="line"/>
			<point x="381" y="1215" type="line"/>
			<point x="381" y="1234" type="line" smooth="yes"/>
			<point x="381" y="1262"/>
			<point x="418" y="1295"/>
			<point x="464" y="1295" type="qcurve" smooth="yes"/>
			<point x="510" y="1295"/>
			<point x="544" y="1254"/>
			<point x="544" y="1222" type="qcurve"/>
		</contour>
		<contour>
			<point x="597" y="1176" type="line"/>
			<point x="423" y="1176" type="line" smooth="yes"/>
			<point x="270" y="1176"/>
			<point x="63" y="1064"/>
			<point x="63" y="926" type="qcurve" smooth="yes"/>
			<point x="63" y="805"/>
			<point x="212" y="693"/>
			<point x="325" y="693" type="qcurve" smooth="yes"/>
			<point x="412" y="693"/>
			<point x="538" y="750"/>
			<point x="578" y="786" type="qcurve"/>
			<point x="565" y="941" type="line"/>
			<point x="550" y="907"/>
			<point x="486" y="873"/>
			<point x="440" y="873" type="qcurve" smooth="yes"/>
			<point x="394" y="873"/>
			<point x="354" y="909"/>
			<point x="354" y="944" type="qcurve" smooth="yes"/>
			<point x="354" y="981"/>
			<point x="407" y="1015"/>
			<point x="467" y="1015" type="qcurve" smooth="yes"/>
			<point x="597" y="1015" type="line"/>
		</contour>
	</outline>
	<guideline x="0" y="1681" angle="0" identifier="3CJlALCfkl"/>
	<guideline x="0" y="909" angle="0" identifier="Zdl6NZVQAy"/>
</glyph>
<glyph name="guillemotleft" format="2">
  <advance width="1112"/>
  <unicode hex="00AB"/>
  <guideline x="0" y="901.0" angle="0" identifier="ZftBQarVKw"/>
  <guideline x="0" y="555.0" angle="0" identifier="MVJpdoVRVd"/>
  <outline>
    <contour>
      <point x="39" y="481" type="line"/>
      <point x="39" y="622" type="line"/>
      <point x="334" y="959" type="line"/>
      <point x="605" y="959" type="line"/>
      <point x="338" y="551" type="line"/>
      <point x="605" y="143" type="line"/>
      <point x="334" y="143" type="line"/>
    </contour>
    <contour>
      <point x="548" y="481" type="line"/>
      <point x="548" y="622" type="line"/>
      <point x="843" y="959" type="line"/>
      <point x="1114" y="959" type="line"/>
      <point x="847" y="551" type="line"/>
      <point x="1114" y="143" type="line"/>
      <point x="843" y="143" type="line"/>
    </contour>
  </outline>
</glyph>
<glyph name="logicalnot" format="2">
  <advance width="1091"/>
  <unicode hex="00AC"/>
  <outline>
    <contour>
      <point x="1021" y="831" type="line"/>
      <point x="1021" y="276" type="line"/>
      <point x="639" y="276" type="line"/>
      <point x="639" y="528" type="line"/>
      <point x="70" y="528" type="line"/>
      <point x="70" y="831" type="line"/>
    </contour>
  </outline>
</glyph>
<glyph name="registered" format="2">
	<unicode hex="00AE"/>
	<advance width="1880"/>
	<outline>
		<contour>
			<point x="101" y="687" type="qcurve" smooth="yes"/>
			<point x="101" y="1050"/>
			<point x="574" y="1519"/>
			<point x="940" y="1519" type="qcurve" smooth="yes"/>
			<point x="1306" y="1519"/>
			<point x="1780" y="1050"/>
			<point x="1780" y="687" type="qcurve" smooth="yes"/>
			<point x="1780" y="323"/>
			<point x="1306" y="-147"/>
			<point x="940" y="-147" type="qcurve" smooth="yes"/>
			<point x="574" y="-147"/>
			<point x="101" y="323"/>
		</contour>
		<contour>
			<point x="259" y="687" type="qcurve" smooth="yes"/>
			<point x="259" y="389"/>
			<point x="643" y="4"/>
			<point x="941" y="4" type="qcurve" smooth="yes"/>
			<point x="1238" y="4"/>
			<point x="1622" y="389"/>
			<point x="1622" y="687" type="qcurve" smooth="yes"/>
			<point x="1622" y="984"/>
			<point x="1238" y="1367"/>
			<point x="941" y="1367" type="qcurve" smooth="yes"/>
			<point x="643" y="1367"/>
			<point x="259" y="984"/>
		</contour>
		<contour>
			<point x="907" y="565" type="line"/>
			<point x="854" y="565" type="line"/>
			<point x="854" y="225" type="line"/>
			<point x="584" y="225" type="line"/>
			<point x="584" y="1159" type="line"/>
			<point x="960" y="1159" type="line" smooth="yes"/>
			<point x="1137" y="1159"/>
			<point x="1340" y="1013"/>
			<point x="1340" y="870" type="qcurve" smooth="yes"/>
			<point x="1340" y="768"/>
			<point x="1222" y="614"/>
			<point x="1131" y="597" type="qcurve"/>
			<point x="1141" y="590"/>
			<point x="1167" y="564"/>
			<point x="1180" y="542" type="qcurve" smooth="yes"/>
			<point x="1348" y="255" type="line"/>
			<point x="1348" y="225" type="line"/>
			<point x="1064" y="225" type="line"/>
		</contour>
		<contour>
			<point x="947" y="966" type="qcurve" smooth="yes"/>
			<point x="854" y="966" type="line"/>
			<point x="854" y="749" type="line"/>
			<point x="947" y="749" type="line" smooth="yes"/>
			<point x="1012" y="749"/>
			<point x="1070" y="802"/>
			<point x="1070" y="859" type="qcurve" smooth="yes"/>
			<point x="1071" y="915"/>
			<point x="1012" y="966"/>
		</contour>
	</outline>
</glyph>
<glyph name="macron" format="2">
	<unicode hex="00AF"/>
	<advance width="1024"/>
	<outline>
		<contour>
			<point x="866" y="1530" type="line"/>
			<point x="866" y="1278" type="line"/>
			<point x="158" y="1278" type="line"/>
			<point x="158" y="1530" type="line"/>
		</contour>
	</outline>
</glyph>
<glyph name="acute" format="2">
  <advance width="1024"/>
  <unicode hex="00B4"/>
  <outline>
    <contour>
      <point x="238" y="1356" type="line"/>
      <point x="508" y="1707" type="line"/>
      <point x="803" y="1535" type="line"/>
      <point x="463" y="1204" type="line"/>
    </contour>
  </outline>
</glyph>
<glyph name="paragraph" format="2">
	<unicode hex="00B6"/>
	<advance width="1352"/>
	<outline>
		<contour>
			<point x="914" y="-146" type="line"/>
			<point x="618" y="-146" type="line"/>
			<point x="618" y="576" type="line"/>
			<point x="517" y="576" type="line" smooth="yes"/>
			<point x="292" y="576"/>
			<point x="50" y="826"/>
			<point x="50" y="1016" type="qcurve" smooth="yes"/>
			<point x="50" y="1204"/>
			<point x="292" y="1456"/>
			<point x="517" y="1456" type="qcurve" smooth="yes"/>
			<point x="914" y="1456" type="line"/>
		</contour>
		<contour>
			<point x="1056" y="1459" type="line"/>
			<point x="1242" y="1459" type="line"/>
			<point x="1242" y="-146" type="line"/>
			<point x="1056" y="-146" type="line"/>
		</contour>
	</outline>
	<guideline x="0" y="901" angle="0" identifier="27539Lsr1A"/>
	<guideline x="0" y="555" angle="0" identifier="e34wUdCmXR"/>
</glyph>
<glyph name="periodcentered" format="2">
	<unicode hex="00B7"/>
	<advance width="727"/>
	<outline>
		<contour>
			<point x="108" y="748" type="qcurve" smooth="yes"/>
			<point x="108" y="843"/>
			<point x="235" y="976"/>
			<point x="353" y="976" type="qcurve" smooth="yes"/>
			<point x="473" y="976"/>
			<point x="599" y="843"/>
			<point x="599" y="748" type="qcurve" smooth="yes"/>
			<point x="599" y="653"/>
			<point x="473" y="520"/>
			<point x="353" y="520" type="qcurve" smooth="yes"/>
			<point x="235" y="520"/>
			<point x="108" y="654"/>
		</contour>
	</outline>
</glyph>
<glyph name="cedilla" format="2">
  <advance width="1024"/>
  <unicode hex="00B8"/>
  <outline>
    <contour>
      <point x="414" y="42.0" type="line"/>
      <point x="602" y="42.0" type="line"/>
      <point x="570" y="-64.0" type="line"/>
      <point x="665" y="-76.0"/>
      <point x="800" y="-161.0"/>
      <point x="800" y="-258.0" type="qcurve" smooth="yes"/>
      <point x="800" y="-362.0"/>
      <point x="573" y="-494.0"/>
      <point x="309" y="-492.0" type="qcurve"/>
      <point x="299" y="-351.0" type="line"/>
      <point x="437" y="-351.0"/>
      <point x="530" y="-309.0"/>
      <point x="530" y="-260.0" type="qcurve" smooth="yes"/>
      <point x="530" y="-216.0"/>
      <point x="454" y="-183.0"/>
      <point x="365" y="-176.0" type="qcurve"/>
    </contour>
  </outline>
</glyph>
<glyph name="ordmasculine" format="2">
	<unicode hex="00BA"/>
	<advance width="932"/>
	<outline>
		<contour>
			<point x="51" y="1073" type="qcurve" smooth="yes"/>
			<point x="51" y="1096" type="line" smooth="yes"/>
			<point x="51" y="1279"/>
			<point x="285" y="1478"/>
			<point x="466" y="1478" type="qcurve" smooth="yes"/>
			<point x="646" y="1478"/>
			<point x="880" y="1279"/>
			<point x="881" y="1096" type="qcurve" smooth="yes"/>
			<point x="881" y="1073" type="line" smooth="yes"/>
			<point x="880" y="891"/>
			<point x="646" y="691"/>
			<point x="466" y="691" type="qcurve" smooth="yes"/>
			<point x="285" y="691"/>
			<point x="51" y="891"/>
		</contour>
		<contour>
			<point x="345" y="1119" type="qcurve" smooth="yes"/>
			<point x="345" y="1050" type="line" smooth="yes"/>
			<point x="345" y="957"/>
			<point x="411" y="901"/>
			<point x="466" y="901" type="qcurve" smooth="yes"/>
			<point x="520" y="901"/>
			<point x="586" y="957"/>
			<point x="586" y="1050" type="qcurve" smooth="yes"/>
			<point x="586" y="1119" type="line" smooth="yes"/>
			<point x="586" y="1211"/>
			<point x="516" y="1267"/>
			<point x="465" y="1267" type="qcurve" smooth="yes"/>
			<point x="414" y="1267"/>
			<point x="345" y="1211"/>
		</contour>
	</outline>
	<guideline x="0" y="1975" angle="0" identifier="Jnt0R9CyOf"/>
</glyph>
<glyph name="Thorn" format="2">
	<unicode hex="00DE"/>
	<advance width="1371"/>
	<outline>
		<contour>
			<point x="140" y="1456" type="line"/>
			<point x="560" y="1456" type="line"/>
			<point x="560" y="1236" type="line"/>
			<point x="768" y="1236" type="line" smooth="yes"/>
			<point x="1036" y="1236"/>
			<point x="1325" y="989"/>
			<point x="1325" y="736" type="qcurve" smooth="yes"/>
			<point x="1325" y="484"/>
			<point x="1037" y="233"/>
			<point x="767" y="233" type="qcurve" smooth="yes"/>
			<point x="561" y="233" type="line"/>
			<point x="561" y="0" type="line"/>
			<point x="140" y="0" type="line"/>
		</contour>
		<contour>
			<point x="712" y="934" type="qcurve" smooth="yes"/>
			<point x="561" y="934" type="line"/>
			<point x="561" y="532" type="line"/>
			<point x="712" y="532" type="line" smooth="yes"/>
			<point x="824" y="532"/>
			<point x="905" y="625"/>
			<point x="905" y="735" type="qcurve" smooth="yes"/>
			<point x="905" y="843"/>
			<point x="824" y="934"/>
		</contour>
	</outline>
	<guideline x="0" y="901" angle="0" identifier="i9jYwjBDP4"/>
	<guideline x="0" y="555" angle="0" identifier="T8KKW8oxop"/>
</glyph>
<glyph name="eth" format="2">
  <advance width="1296"/>
  <unicode hex="00F0"/>
  <outline>
    <contour>
      <point x="164.0" y="1357.0" type="qcurve"/>
      <point x="264.0" y="1616.0" type="line"/>
      <point x="688.0" y="1530.0"/>
      <point x="1235.0" y="976.0"/>
      <point x="1235.0" y="633.0" type="qcurve"/>
      <point x="1235.0" y="535.0" type="line"/>
      <point x="1235.0" y="293.0"/>
      <point x="931.0" y="-20.0"/>
      <point x="648.0" y="-20.0" type="qcurve" smooth="yes"/>
      <point x="392.0" y="-20.0"/>
      <point x="61.0" y="255.0"/>
      <point x="61.0" y="468.0" type="qcurve" smooth="yes"/>
      <point x="61.0" y="723.0"/>
      <point x="344.0" y="998.0"/>
      <point x="588" y="998.0" type="qcurve" smooth="yes"/>
      <point x="744.0" y="998.0"/>
      <point x="891.0" y="799.0"/>
      <point x="891.0" y="613.0" type="qcurve"/>
      <point x="824.0" y="540" type="line"/>
      <point x="824.0" y="618"/>
      <point x="735.0" y="701"/>
      <point x="652.0" y="701" type="qcurve" smooth="yes"/>
      <point x="552" y="701"/>
      <point x="477.0" y="603"/>
      <point x="477.0" y="475" type="qcurve" smooth="yes"/>
      <point x="477.0" y="363.0"/>
      <point x="560" y="269"/>
      <point x="652.0" y="269.0" type="qcurve" smooth="yes"/>
      <point x="734.0" y="269.0"/>
      <point x="822.0" y="386.0"/>
      <point x="822.0" y="495.0" type="qcurve" smooth="yes"/>
      <point x="822.0" y="635.0" type="line" smooth="yes"/>
      <point x="822.0" y="876.0"/>
      <point x="451.0" y="1283.0"/>
    </contour>
    <contour>
      <point x="1143.0" y="1427.0" type="line"/>
      <point x="381.0" y="1017.0" type="line"/>
      <point x="298.0" y="1137.0" type="line"/>
      <point x="1060.0" y="1546.0" type="line"/>
    </contour>
  </outline>
</glyph>
<glyph name="oe" format="2">
	<unicode hex="0153"/>
	<advance width="1972"/>
	<outline>
		<contour>
			<point x="479" y="579" type="qcurve" smooth="yes"/>
			<point x="479" y="481" type="line" smooth="yes"/>
			<point x="479" y="349"/>
			<point x="574" y="269"/>
			<point x="651" y="269" type="qcurve" smooth="yes"/>
			<point x="728" y="269"/>
			<point x="822" y="349"/>
			<point x="822" y="481" type="qcurve" smooth="yes"/>
			<point x="822" y="579" type="line" smooth="yes"/>
			<point x="822" y="710"/>
			<point x="723" y="790"/>
			<point x="651" y="790" type="qcurve" smooth="yes"/>
			<point x="578" y="790"/>
			<point x="479" y="710"/>
		</contour>
		<contour>
			<point x="1033" y="961" type="qcurve"/>
			<point x="1105" y="1033"/>
			<point x="1290" y="1089"/>
			<point x="1394" y="1089" type="qcurve" smooth="yes"/>
			<point x="1640" y="1089"/>
			<point x="1934" y="814"/>
			<point x="1934" y="563" type="qcurve" smooth="yes"/>
			<point x="1934" y="426" type="line"/>
			<point x="1114" y="426" type="line"/>
			<point x="1114" y="658" type="line"/>
			<point x="1533" y="658" type="line"/>
			<point x="1533" y="670" type="line"/>
			<point x="1534" y="731"/>
			<point x="1455" y="812"/>
			<point x="1385" y="812" type="qcurve" smooth="yes"/>
			<point x="1310" y="812"/>
			<point x="1224" y="704"/>
			<point x="1224" y="578" type="qcurve" smooth="yes"/>
			<point x="1224" y="483" type="line" smooth="yes"/>
			<point x="1224" y="364"/>
			<point x="1320" y="257"/>
			<point x="1402" y="257" type="qcurve" smooth="yes"/>
			<point x="1471" y="257"/>
			<point x="1575" y="337"/>
			<point x="1607" y="386" type="qcurve"/>
			<point x="1904" y="206" type="line"/>
			<point x="1854" y="90"/>
			<point x="1586" y="-31"/>
			<point x="1413" y="-31" type="qcurve" smooth="yes"/>
			<point x="1299" y="-31"/>
			<point x="1105" y="25"/>
			<point x="1031" y="97" type="qcurve"/>
			<point x="956" y="25"/>
			<point x="762" y="-30"/>
			<point x="651" y="-30" type="qcurve" smooth="yes"/>
			<point x="394" y="-30"/>
			<point x="61" y="254"/>
			<point x="61" y="514" type="qcurve" smooth="yes"/>
			<point x="61" y="546" type="line" smooth="yes"/>
			<point x="61" y="806"/>
			<point x="394" y="1089"/>
			<point x="651" y="1089" type="qcurve" smooth="yes"/>
			<point x="763" y="1089"/>
			<point x="958" y="1034"/>
		</contour>
	</outline>
</glyph>
<glyph name="doubleprimemod" format="2">
	<unicode hex="02BA"/>
	<advance width="1128"/>
	<outline>
		<contour>
			<point x="154" y="1502" type="line"/>
			<point x="548" y="1502" type="line"/>
			<point x="407" y="896" type="line"/>
			<point x="92" y="902" type="line"/>
		</contour>
		<contour>
			<point x="684" y="1502" type="line"/>
			<point x="1078" y="1502" type="line"/>
			<point x="937" y="896" type="line"/>
			<point x="622" y="902" type="line"/>
		</contour>
	</outline>
</glyph>
<glyph name="circumflex" format="2">
	<unicode hex="02C6"/>
	<advance width="1024"/>
	<outline>
		<contour>
			<point x="600" y="1628" type="line"/>
			<point x="937" y="1203" type="line"/>
			<point x="658" y="1203" type="line"/>
			<point x="511" y="1359" type="line"/>
			<point x="366" y="1203" type="line"/>
			<point x="89" y="1203" type="line"/>
			<point x="422" y="1628" type="line"/>
		</contour>
	</outline>
</glyph>
<glyph name="caron" format="2">
	<unicode hex="02C7"/>
	<advance width="1024"/>
	<outline>
		<contour>
			<point x="426" y="1183" type="line"/>
			<point x="89" y="1608" type="line"/>
			<point x="368" y="1608" type="line"/>
			<point x="515" y="1452" type="line"/>
			<point x="660" y="1608" type="line"/>
			<point x="937" y="1608" type="line"/>
			<point x="604" y="1183" type="line"/>
		</contour>
	</outline>
</glyph>
<glyph name="tilde" format="2">
	<unicode hex="02DC"/>
	<advance width="1024"/>
	<outline>
		<contour>
			<point x="98" y="1340" type="line"/>
			<point x="137" y="1431"/>
			<point x="300" y="1571"/>
			<point x="379" y="1571" type="qcurve" smooth="yes"/>
			<point x="428" y="1571"/>
			<point x="516" y="1544"/>
			<point x="560" y="1514" type="qcurve" smooth="yes"/>
			<point x="599" y="1489"/>
			<point x="693" y="1438"/>
			<point x="738" y="1438" type="qcurve" smooth="yes"/>
			<point x="786" y="1438"/>
			<point x="867" y="1500"/>
			<point x="894" y="1543" type="qcurve"/>
			<point x="991" y="1393" type="line"/>
			<point x="946" y="1292"/>
			<point x="789" y="1190"/>
			<point x="721" y="1190" type="qcurve" smooth="yes"/>
			<point x="663" y="1190"/>
			<point x="552" y="1241"/>
			<point x="515" y="1263" type="qcurve" smooth="yes"/>
			<point x="474" y="1284"/>
			<point x="395" y="1326"/>
			<point x="360" y="1326" type="qcurve" smooth="yes"/>
			<point x="305" y="1326"/>
			<point x="209" y="1239"/>
			<point x="186" y="1206" type="qcurve"/>
		</contour>
	</outline>
</glyph>
<glyph name="Germandbls" format="2">
	<unicode hex="1E9E"/>
	<advance width="1638"/>
	<outline>
		<contour>
			<point x="148" y="1092" type="line" smooth="yes"/>
			<point x="148" y="1305"/>
			<point x="439" y="1534"/>
			<point x="710" y="1534" type="qcurve" smooth="yes"/>
			<point x="954" y="1534"/>
			<point x="1217" y="1369"/>
			<point x="1217" y="1225" type="qcurve" smooth="yes"/>
			<point x="1217" y="1169"/>
			<point x="1168" y="1059"/>
			<point x="1113" y="993" type="qcurve" smooth="yes"/>
			<point x="1084" y="959"/>
			<point x="1054" y="908"/>
			<point x="1054" y="880" type="qcurve" smooth="yes"/>
			<point x="1054" y="850"/>
			<point x="1111" y="797"/>
			<point x="1293" y="739" type="qcurve" smooth="yes"/>
			<point x="1482" y="679"/>
			<point x="1650" y="470"/>
			<point x="1650" y="338" type="qcurve" smooth="yes"/>
			<point x="1650" y="156"/>
			<point x="1381" y="-30"/>
			<point x="1131" y="-30" type="qcurve" smooth="yes"/>
			<point x="884" y="-30"/>
			<point x="603" y="153"/>
			<point x="603" y="338" type="qcurve" smooth="yes"/>
			<point x="603" y="355" type="line"/>
			<point x="1001" y="353" type="line"/>
			<point x="1001" y="326" type="line" smooth="yes"/>
			<point x="1001" y="269"/>
			<point x="1067" y="225"/>
			<point x="1129" y="225" type="qcurve" smooth="yes"/>
			<point x="1184" y="225"/>
			<point x="1244" y="280"/>
			<point x="1244" y="331" type="qcurve" smooth="yes"/>
			<point x="1244" y="383"/>
			<point x="1132" y="455"/>
			<point x="983" y="501" type="qcurve" smooth="yes"/>
			<point x="783" y="563"/>
			<point x="641" y="721"/>
			<point x="641" y="815" type="qcurve" smooth="yes"/>
			<point x="641" y="864"/>
			<point x="700" y="977"/>
			<point x="779" y="1083" type="qcurve" smooth="yes"/>
			<point x="800" y="1111"/>
			<point x="819" y="1154"/>
			<point x="819" y="1174" type="qcurve" smooth="yes"/>
			<point x="819" y="1227"/>
			<point x="760" y="1278"/>
			<point x="706" y="1278" type="qcurve" smooth="yes"/>
			<point x="629" y="1278"/>
			<point x="547" y="1182"/>
			<point name="hr00" x="547" y="1092" type="qcurve"/>
			<point x="547" y="378" type="line" smooth="yes"/>
			<point x="547" y="188"/>
			<point x="326" y="-16"/>
			<point x="130" y="-16" type="qcurve" smooth="yes"/>
			<point x="96" y="-16"/>
			<point x="-29" y="-1"/>
			<point x="-49" y="9" type="qcurve"/>
			<point x="-51" y="295" type="line"/>
			<point x="-38" y="289"/>
			<point x="34" y="275"/>
			<point x="65" y="275" type="qcurve" smooth="yes"/>
			<point x="110" y="275"/>
			<point x="148" y="345"/>
			<point x="148" y="429" type="qcurve" smooth="yes"/>
		</contour>
	</outline>
</glyph>
<glyph name="quotedblleft" format="2">
  <advance width="1318"/>
  <unicode hex="201C"/>
  <outline>
    <contour>
      <point x="146" y="894" type="line"/>
      <point x="146" y="1072" type="line" smooth="yes"/>
      <point x="146" y="1227"/>
      <point x="285" y="1455"/>
      <point x="439" y="1556" type="qcurve"/>
      <point x="676" y="1391" type="line"/>
      <point x="625" y="1327"/>
      <point x="569.0" y="1177"/>
      <point x="569" y="1073" type="qcurve" smooth="yes"/>
      <point x="569" y="894" type="line"/>
    </contour>
    <contour>
      <point x="736" y="894" type="line"/>
      <point x="736" y="1072" type="line" smooth="yes"/>
      <point x="736" y="1227"/>
      <point x="875" y="1455"/>
      <point x="1029" y="1556" type="qcurve"/>
      <point x="1266" y="1391" type="line"/>
      <point x="1215" y="1327"/>
      <point x="1159.0" y="1177"/>
      <point x="1159" y="1073" type="qcurve" smooth="yes"/>
      <point x="1159" y="894" type="line"/>
    </contour>
  </outline>
</glyph>
<glyph name="quotedblright" format="2">
  <advance width="1318"/>
  <unicode hex="201D"/>
  <outline>
    <contour>
      <point x="582" y="1458" type="line"/>
      <point x="582" y="1280" type="line" smooth="yes"/>
      <point x="582" y="1125"/>
      <point x="443" y="897"/>
      <point x="289" y="796" type="qcurve"/>
      <point x="52" y="961" type="line"/>
      <point x="103" y="1025"/>
      <point x="159.0" y="1175"/>
      <point x="159" y="1279" type="qcurve" smooth="yes"/>
      <point x="159" y="1458" type="line"/>
    </contour>
    <contour>
      <point x="1172" y="1458" type="line"/>
      <point x="1172" y="1280" type="line" smooth="yes"/>
      <point x="1172" y="1125"/>
      <point x="1033" y="897"/>
      <point x="879" y="796" type="qcurve"/>
      <point x="642" y="961" type="line"/>
      <point x="693" y="1025"/>
      <point x="749.0" y="1175"/>
      <point x="749" y="1279" type="qcurve" smooth="yes"/>
      <point x="749" y="1458" type="line"/>
    </contour>
  </outline>
</glyph>
<glyph name="dagger" format="2">
  <advance width="1008"/>
  <unicode hex="2020"/>
  <outline>
    <contour>
      <point x="306.0" y="-174.0" type="qcurve"/>
      <point x="302.0" y="58.0" type="line"/>
      <point x="333.0" y="698.0" type="line"/>
      <point x="333.0" y="802.0" type="line"/>
      <point x="22.0" y="802.0" type="line"/>
      <point x="22.0" y="1075.0" type="line"/>
      <point x="329.0" y="1075.0" type="line"/>
      <point x="306.0" y="1508.0" type="line"/>
      <point x="697.0" y="1508.0" type="line"/>
      <point x="674.0" y="1075.0" type="line"/>
      <point x="981.0" y="1075.0" type="line"/>
      <point x="981.0" y="802.0" type="line"/>
      <point x="670.0" y="802.0" type="line"/>
      <point x="670.0" y="698.0" type="line"/>
      <point x="701.0" y="58.0" type="line"/>
      <point x="697.0" y="-174.0" type="line"/>
      <point x="552" y="-454.0"/>
      <point x="450" y="-453"/>
    </contour>
  </outline>
</glyph>
<glyph name="daggerdbl" format="2">
  <advance width="1008"/>
  <unicode hex="2021"/>
  <outline>
    <contour>
      <point x="22.0" y="-12.0" type="line"/>
      <point x="22.0" y="254.0" type="line"/>
      <point x="338.0" y="254.0" type="line"/>
      <point x="308.0" y="534.0" type="line"/>
      <point x="333.0" y="802.0" type="line"/>
      <point x="22.0" y="802.0" type="line"/>
      <point x="22.0" y="1075.0" type="line"/>
      <point x="319.0" y="1075.0" type="line"/>
      <point x="306.0" y="1508.0" type="line"/>
      <point x="697.0" y="1508.0" type="line"/>
      <point x="684.0" y="1075.0" type="line"/>
      <point x="981.0" y="1075.0" type="line"/>
      <point x="981.0" y="802.0" type="line"/>
      <point x="670.0" y="802.0" type="line"/>
      <point x="695.0" y="534.0" type="line"/>
      <point x="665.0" y="254.0" type="line"/>
      <point x="981.0" y="254.0" type="line"/>
      <point x="981.0" y="-12.0" type="line"/>
      <point x="679.0" y="-12.0" type="line"/>
      <point x="692.0" y="-452.0" type="line"/>
      <point x="311.0" y="-452.0" type="line"/>
      <point x="324.0" y="-12.0" type="line"/>
    </contour>
  </outline>
</glyph>
<glyph name="minute" format="2">
  <advance width="798"/>
  <unicode hex="2032"/>
  <outline>
    <contour>
      <point x="76" y="928" type="line"/>
      <point x="400" y="1606" type="line"/>
      <point x="728" y="1419" type="line"/>
      <point x="336" y="772" type="line"/>
    </contour>
  </outline>
</glyph>
<glyph name="fraction" format="2">
	<unicode hex="2044"/>
	<advance width="342"/>
	<outline>
		<contour>
			<point x="685.2307692308" y="1401.0923076923" type="line"/>
			<point x="-107.5230769231" y="-37.9384615385" type="line"/>
			<point x="-321.4153846154" y="82.4461538462" type="line"/>
			<point x="468.7230769231" y="1514.6" type="line"/>
		</contour>
	</outline>
	<guideline x="0" y="901" angle="0" identifier="tcCoNUQTdD"/>
	<guideline x="0" y="555" angle="0" identifier="0lx51aIE0d"/>
</glyph>
<glyph name="dong" format="2">
	<unicode hex="20AB"/>
	<advance width="1309"/>
	<outline>
		<contour>
			<point x="61" y="513" type="qcurve" smooth="yes"/>
			<point x="61" y="545" type="line" smooth="yes"/>
			<point x="61" y="787"/>
			<point x="330" y="1078"/>
			<point x="538" y="1078" type="qcurve" smooth="yes"/>
			<point x="625" y="1078"/>
			<point x="760" y="1016"/>
			<point x="792" y="967" type="qcurve"/>
			<point x="792" y="1456" type="line"/>
			<point x="1198" y="1456" type="line"/>
			<point x="1198" y="0" type="line"/>
			<point x="803" y="0" type="line"/>
			<point x="798" y="106" type="line"/>
			<point x="794" y="106" type="line"/>
			<point x="768" y="49"/>
			<point x="627" y="-20"/>
			<point x="540" y="-20" type="qcurve" smooth="yes"/>
			<point x="311" y="-20"/>
			<point x="61" y="272"/>
		</contour>
		<contour>
			<point x="478" y="484" type="line" smooth="yes"/>
			<point x="478" y="383"/>
			<point x="565" y="277"/>
			<point x="639" y="277" type="qcurve" smooth="yes"/>
			<point x="694" y="277"/>
			<point x="770" y="334"/>
			<point x="790" y="381" type="qcurve"/>
			<point x="790" y="678" type="line"/>
			<point x="772" y="726"/>
			<point x="704" y="782"/>
			<point x="641" y="782" type="qcurve" smooth="yes"/>
			<point x="569" y="782"/>
			<point x="478" y="675"/>
			<point x="478" y="574" type="qcurve" smooth="yes"/>
		</contour>
		<contour>
			<point x="1341" y="1156" type="line"/>
			<point x="305" y="1156" type="line"/>
			<point x="305" y="1352" type="line"/>
			<point x="1341" y="1352" type="line"/>
		</contour>
		<contour>
			<point x="1291" y="-306" type="line"/>
			<point x="47" y="-306" type="line"/>
			<point x="47" y="-128" type="line"/>
			<point x="1291" y="-128" type="line"/>
		</contour>
	</outline>
</glyph>
<glyph name="Euro" format="2">
  <advance width="1140"/>
  <unicode hex="20AC"/>
  <outline>
    <contour>
      <point x="824" y="1008" type="line"/>
      <point x="827" y="798" type="line"/>
      <point x="22" y="798" type="line"/>
      <point x="22" y="1008" type="line"/>
    </contour>
    <contour>
      <point x="827" y="682" type="line"/>
      <point x="827" y="473" type="line"/>
      <point x="22" y="473" type="line"/>
      <point x="22" y="682" type="line"/>
    </contour>
    <contour>
      <point x="143" y="544" type="qcurve" smooth="yes"/>
      <point x="143" y="903" type="line" smooth="yes"/>
      <point x="143" y="1183"/>
      <point x="418" y="1484"/>
      <point x="674" y="1484" type="qcurve" smooth="yes"/>
      <point x="820" y="1484"/>
      <point x="1036" y="1395"/>
      <point x="1111" y="1313" type="qcurve"/>
      <point x="901" y="1076" type="line"/>
      <point x="868" y="1112"/>
      <point x="755" y="1176"/>
      <point x="711" y="1176" type="qcurve" smooth="yes"/>
      <point x="637" y="1176"/>
      <point x="582" y="1061"/>
      <point x="582" y="906" type="qcurve" smooth="yes"/>
      <point x="582" y="541" type="line" smooth="yes"/>
      <point x="582" y="391"/>
      <point x="637" y="279"/>
      <point x="711" y="279" type="qcurve" smooth="yes"/>
      <point x="771" y="279"/>
      <point x="855" y="342"/>
      <point x="910" y="392" type="qcurve"/>
      <point x="1129" y="171" type="line"/>
      <point x="1043" y="74"/>
      <point x="818" y="-30"/>
      <point x="676" y="-30" type="qcurve" smooth="yes"/>
      <point x="419" y="-30"/>
      <point x="143" y="267"/>
    </contour>
  </outline>
</glyph>
<glyph name="uni20AD" format="2">
	<unicode hex="20AD"/>
	<advance width="1363"/>
	<outline>
		<contour>
			<point x="140" y="0" type="line"/>
			<point x="140" y="1456" type="line"/>
			<point x="561" y="1456" type="line"/>
			<point x="561" y="960" type="line"/>
			<point x="946" y="1456" type="line"/>
			<point x="1370" y="1456" type="line"/>
			<point x="561" y="478" type="line"/>
			<point x="561" y="0" type="line"/>
		</contour>
		<contour>
			<point x="898" y="0" type="line"/>
			<point x="503" y="657" type="line"/>
			<point x="782" y="962" type="line"/>
			<point x="1418" y="0" type="line"/>
		</contour>
		<contour>
			<point x="267" y="661" type="line"/>
			<point x="-9" y="661" type="line"/>
			<point x="-9" y="870" type="line"/>
			<point x="267" y="870" type="line"/>
		</contour>
		<contour>
			<point x="1271" y="870" type="line"/>
			<point x="1271" y="661" type="line"/>
			<point x="790" y="661" type="line"/>
			<point x="790" y="870" type="line"/>
		</contour>
	</outline>
</glyph>
<glyph name="uni20B2" format="2">
	<unicode hex="20B2"/>
	<advance width="1207"/>
	<outline>
		<contour>
			<point x="549" y="-190" type="line"/>
			<point x="549" y="57" type="line"/>
			<point x="567" y="71" type="line"/>
			<point x="567" y="708" type="line"/>
			<point x="697" y="708" type="line"/>
			<point x="697" y="70" type="line"/>
			<point x="719" y="60" type="line"/>
			<point x="719" y="-190" type="line"/>
		</contour>
		<contour>
			<point x="567" y="708" type="line"/>
			<point x="567" y="1342" type="line"/>
			<point x="552" y="1352" type="line"/>
			<point x="552" y="1582" type="line"/>
			<point x="712" y="1582" type="line"/>
			<point x="712" y="1352" type="line"/>
			<point x="697" y="1339" type="line"/>
			<point x="697" y="708" type="line"/>
		</contour>
		<contour>
			<point x="1155" y="785" type="line"/>
			<point x="1155" y="452" type="line" smooth="yes"/>
			<point x="1155" y="253"/>
			<point x="848" y="-5"/>
			<point x="611" y="-5" type="qcurve" smooth="yes"/>
			<point x="390" y="-5"/>
			<point x="32" y="288"/>
			<point x="32" y="542" type="qcurve" smooth="yes"/>
			<point x="32" y="897" type="line" smooth="yes"/>
			<point x="32" y="1179"/>
			<point x="371" y="1484"/>
			<point x="637" y="1484" type="qcurve" smooth="yes"/>
			<point x="813" y="1484"/>
			<point x="1056" y="1352"/>
			<point x="1124" y="1230" type="qcurve"/>
			<point x="880" y="996" type="line"/>
			<point x="826" y="1083"/>
			<point x="718" y="1176"/>
			<point x="652" y="1176" type="qcurve" smooth="yes"/>
			<point x="575" y="1176"/>
			<point x="472" y="1065"/>
			<point x="472" y="899" type="qcurve" smooth="yes"/>
			<point x="472" y="544" type="line" smooth="yes"/>
			<point x="472" y="405"/>
			<point x="556" y="281"/>
			<point x="650" y="281" type="qcurve" smooth="yes"/>
			<point x="736" y="281"/>
			<point x="813" y="353"/>
			<point x="813" y="433" type="qcurve" smooth="yes"/>
			<point x="813" y="509" type="line"/>
			<point x="756" y="509" type="line"/>
			<point x="756" y="785" type="line"/>
		</contour>
	</outline>
</glyph>
<glyph name="numero" format="2">
	<unicode hex="2116"/>
	<advance width="2560"/>
	<outline>
		<contour>
			<point x="140" y="0" type="line"/>
			<point x="140" y="1456" type="line"/>
			<point x="613" y="1456" type="line"/>
			<point x="940" y="699" type="line" smooth="yes"/>
			<point x="953" y="668"/>
			<point x="971" y="622"/>
			<point x="981" y="585" type="qcurve"/>
			<point x="989" y="585" type="line"/>
			<point x="987" y="622"/>
			<point x="986" y="667"/>
			<point x="986" y="705" type="qcurve" smooth="yes"/>
			<point x="986" y="1456" type="line"/>
			<point x="1329" y="1456" type="line"/>
			<point x="1329" y="0" type="line"/>
			<point x="841" y="0" type="line"/>
			<point x="525" y="761" type="line" smooth="yes"/>
			<point x="512" y="792"/>
			<point x="495" y="846"/>
			<point x="487" y="882" type="qcurve"/>
			<point x="479" y="882" type="line"/>
			<point x="481" y="845"/>
			<point x="483" y="783"/>
			<point x="483" y="746" type="qcurve" smooth="yes"/>
			<point x="483" y="0" type="line"/>
		</contour>
		<contour>
			<point x="1468" y="993" type="qcurve" smooth="yes"/>
			<point x="1468" y="1020" type="line" smooth="yes"/>
			<point x="1468" y="1237"/>
			<point x="1746" y="1474"/>
			<point x="1961" y="1474" type="qcurve" smooth="yes"/>
			<point x="2175" y="1474"/>
			<point x="2453" y="1237"/>
			<point x="2454" y="1020" type="qcurve" smooth="yes"/>
			<point x="2454" y="993" type="line" smooth="yes"/>
			<point x="2453" y="776"/>
			<point x="2175" y="539"/>
			<point x="1961" y="539" type="qcurve" smooth="yes"/>
			<point x="1746" y="539"/>
			<point x="1468" y="776"/>
		</contour>
		<contour>
			<point x="1817" y="1047" type="qcurve" smooth="yes"/>
			<point x="1817" y="966" type="line" smooth="yes"/>
			<point x="1817" y="855"/>
			<point x="1896" y="789"/>
			<point x="1961" y="789" type="qcurve" smooth="yes"/>
			<point x="2025" y="789"/>
			<point x="2103" y="855"/>
			<point x="2103" y="966" type="qcurve" smooth="yes"/>
			<point x="2103" y="1047" type="line" smooth="yes"/>
			<point x="2103" y="1157"/>
			<point x="2021" y="1224"/>
			<point x="1960" y="1224" type="qcurve" smooth="yes"/>
			<point x="1900" y="1224"/>
			<point x="1817" y="1157"/>
		</contour>
		<contour>
			<point x="1503" y="192" type="line"/>
			<point x="1503" y="454" type="line"/>
			<point x="2416" y="454" type="line"/>
			<point x="2416" y="192" type="line"/>
		</contour>
	</outline>
</glyph>
<glyph name="bulletoperator" format="2">
	<unicode hex="2219"/>
	<advance width="1024"/>
	<outline>
		<contour>
			<point x="260" y="674" type="qcurve" smooth="yes"/>
			<point x="260" y="775"/>
			<point x="402" y="925"/>
			<point x="512" y="925" type="qcurve" smooth="yes"/>
			<point x="622" y="925"/>
			<point x="764" y="775"/>
			<point x="764" y="674" type="qcurve" smooth="yes"/>
			<point x="764" y="574"/>
			<point x="622" y="424"/>
			<point x="512" y="424" type="qcurve" smooth="yes"/>
			<point x="402" y="424"/>
			<point x="260" y="574"/>
		</contour>
	</outline>
</glyph>
<glyph name="notequal" format="2">
	<unicode hex="2260"/>
	<advance width="1024"/>
	<outline>
		<contour>
			<point x="911" y="1165" type="line"/>
			<point x="731" y="845" type="line"/>
			<point x="704" y="816" type="line"/>
			<point x="490" y="445" type="line"/>
			<point x="486" y="421" type="line"/>
			<point x="285" y="73" type="line"/>
			<point x="93" y="184" type="line"/>
			<point x="253" y="462" type="line"/>
			<point x="276" y="484" type="line"/>
			<point x="483" y="843" type="line"/>
			<point x="494" y="879" type="line"/>
			<point x="719" y="1276" type="line"/>
		</contour>
		<contour>
			<point x="57" y="294" type="line"/>
			<point x="57" y="588" type="line"/>
			<point x="967" y="588" type="line"/>
			<point x="967" y="294" type="line"/>
		</contour>
		<contour>
			<point x="57" y="744" type="line"/>
			<point x="57" y="1039" type="line"/>
			<point x="967" y="1039" type="line"/>
			<point x="967" y="744" type="line"/>
		</contour>
	</outline>
</glyph>
<glyph name="greaterequal" format="2">
	<unicode hex="2265"/>
	<advance width="1024"/>
	<outline>
		<contour>
			<point x="71" y="150" type="line"/>
			<point x="71" y="464" type="line"/>
			<point x="636" y="680" type="line"/>
			<point x="71" y="895" type="line"/>
			<point x="71" y="1198" type="line"/>
			<point x="969" y="813" type="line"/>
			<point x="969" y="535" type="line"/>
		</contour>
		<contour>
			<point x="972" y="1" type="line"/>
			<point x="62" y="1" type="line"/>
			<point x="62" y="250" type="line"/>
			<point x="972" y="250" type="line"/>
		</contour>
	</outline>
</glyph>
<glyph name="leftanglebracket" format="2">
	<unicode hex="27E8"/>
	<advance width="916"/>
	<outline>
		<contour>
			<point x="-11" y="476" type="line"/>
			<point x="-11" y="725" type="line"/>
			<point x="591" y="1499" type="line"/>
			<point x="855" y="1314" type="line"/>
			<point x="480" y="604" type="line"/>
			<point x="857" y="-121" type="line"/>
			<point x="591" y="-304" type="line"/>
		</contour>
	</outline>
</glyph>
<glyph name="rightanglebracket" format="2">
	<unicode hex="27E9"/>
	<advance width="916"/>
	<outline>
		<contour>
			<point x="61" y="-119" type="line"/>
			<point x="436" y="591" type="line"/>
			<point x="59" y="1316" type="line"/>
			<point x="325" y="1499" type="line"/>
			<point x="927" y="719" type="line"/>
			<point x="927" y="470" type="line"/>
			<point x="325" y="-304" type="line"/>
		</contour>
	</outline>
</glyph>
<glyph name="Che" format="2">
  <advance width="1518"/>
  <guideline x="1123" y="741" angle="90" identifier="nfCxFSb4p1"/>
  <outline>
    <contour>
      <point x="542" y="1112" type="line" smooth="yes"/>
      <point x="542" y="940.0"/>
      <point x="657.4527559055118" y="824.0"/>
      <point x="797" y="824" type="qcurve" smooth="yes"/>
      <point x="898" y="824"/>
      <point x="1069" y="846"/>
      <point x="1167" y="865" type="qcurve"/>
      <point x="1167" y="567" type="line"/>
      <point x="1020.0987958350809" y="534.3552879633513"/>
      <point x="797.378947368421" y="516.0"/>
      <point x="682" y="516" type="qcurve" smooth="yes"/>
      <point x="407.8776223776224" y="516.0"/>
      <point x="120" y="727.0"/>
      <point x="120" y="975" type="qcurve" smooth="yes"/>
      <point x="120" y="1456" type="line"/>
      <point x="542" y="1456" type="line"/>
    </contour>
    <contour>
      <point x="1378" y="1456" type="line"/>
      <point x="1378" y="0" type="line"/>
      <point x="956" y="0" type="line"/>
      <point x="956" y="1456" type="line"/>
    </contour>
  </outline>
</glyph>
<glyph name="Ef" format="2">
  <advance width="1945"/>
  <outline>
    <contour>
      <point x="1175" y="1476" type="line"/>
      <point x="1175" y="1303" type="line"/>
      <point x="1203" y="1303" type="line" smooth="yes"/>
      <point x="1557.0" y="1303.0"/>
      <point x="1905.0" y="1002.386690647482"/>
      <point x="1905" y="744" type="qcurve" smooth="yes"/>
      <point x="1905.0" y="482.40142095914746"/>
      <point x="1557.0" y="184.0"/>
      <point x="1203" y="184" type="qcurve" smooth="yes"/>
      <point x="1175" y="184" type="line"/>
      <point x="1175" y="-20" type="line"/>
      <point x="770" y="-20" type="line"/>
      <point x="770" y="184" type="line"/>
      <point x="742" y="184" type="line" smooth="yes"/>
      <point x="387.0" y="184"/>
      <point x="40.0" y="483.3960923623446"/>
      <point x="40" y="744" type="qcurve" smooth="yes"/>
      <point x="40.0" y="1003.3920863309352"/>
      <point x="387.0" y="1303.0"/>
      <point x="742" y="1303" type="qcurve" smooth="yes"/>
      <point x="770" y="1303" type="line"/>
      <point x="770" y="1476" type="line"/>
    </contour>
    <contour>
      <point x="1203" y="1003" type="qcurve" smooth="yes"/>
      <point x="1175" y="1003" type="line"/>
      <point x="1175" y="484" type="line"/>
      <point x="1203" y="484" type="line" smooth="yes"/>
      <point x="1356.0" y="484"/>
      <point x="1485" y="617"/>
      <point x="1485" y="744" type="qcurve" smooth="yes"/>
      <point x="1485" y="865"/>
      <point x="1356.0" y="1003"/>
    </contour>
    <contour>
      <point x="742" y="1003" type="line" smooth="yes"/>
      <point x="589.0" y="1003"/>
      <point x="460" y="865"/>
      <point x="460" y="744" type="qcurve" smooth="yes"/>
      <point x="460" y="617"/>
      <point x="589.0" y="484"/>
      <point x="742" y="484" type="qcurve" smooth="yes"/>
      <point x="770" y="484" type="line"/>
      <point x="770" y="1003" type="line"/>
    </contour>
  </outline>
</glyph>
<glyph name="El.bgr" format="2">
  <advance width="1276"/>
  <outline>
    <contour>
      <point x="1326" y="0" type="line"/>
      <point x="863" y="0" type="line"/>
      <point x="655" y="831" type="line" smooth="yes"/>
      <point x="643" y="880"/>
      <point x="625" y="955"/>
      <point x="618" y="999" type="qcurve"/>
      <point x="610" y="999" type="line"/>
      <point x="603" y="955"/>
      <point x="585" y="880"/>
      <point x="572" y="831" type="qcurve" smooth="yes"/>
      <point x="352" y="0" type="line"/>
      <point x="-35" y="0" type="line"/>
      <point x="407" y="1460" type="line"/>
      <point x="880" y="1460" type="line"/>
    </contour>
  </outline>
</glyph>
<glyph name="Hadescender" format="2">
  <advance width="1323"/>
  <outline>
    <contour>
      <point x="754" y="308" type="line"/>
      <point x="1323" y="308" type="line"/>
      <point x="1323" y="-290" type="line"/>
      <point x="921" y="-290" type="line"/>
      <point x="921" y="0" type="line"/>
      <point x="754" y="0" type="line"/>
    </contour>
    <contour>
      <point x="-18" y="0" type="line"/>
      <point x="445" y="835" type="line"/>
      <point x="553" y="835" type="line"/>
      <point x="846" y="1456" type="line"/>
      <point x="1217" y="1456" type="line"/>
      <point x="798" y="655" type="line"/>
      <point x="691" y="655" type="line"/>
      <point x="372" y="0" type="line"/>
    </contour>
    <contour>
      <point x="1" y="1456" type="line"/>
      <point x="491" y="1456" type="line"/>
      <point x="798" y="844" type="line"/>
      <point x="795" y="844" type="line"/>
      <point x="1254" y="0" type="line"/>
      <point x="754" y="0" type="line"/>
      <point x="435" y="636" type="line"/>
      <point x="439" y="636" type="line"/>
    </contour>
  </outline>
</glyph>
<glyph name="Kaverticalstrokecyr" format="2">
  <advance width="1739"/>
  <guideline x="637" y="675" angle="90" identifier="5CJVZV5P4J"/>
  <outline>
    <contour>
      <point x="652" y="300" type="line"/>
      <point x="652" y="1156" type="line"/>
      <point x="922" y="1156" type="line"/>
      <point x="922" y="300" type="line"/>
    </contour>
    <contour>
      <point x="1254" y="0" type="line"/>
      <point x="975" y="611" type="line"/>
      <point x="1299" y="905" type="line"/>
      <point x="1754" y="0" type="line"/>
    </contour>
    <contour>
      <point x="787" y="910" type="line"/>
      <point x="987" y="910" type="line"/>
      <point x="1302" y="1456" type="line"/>
      <point x="1716" y="1456" type="line"/>
      <point x="1180" y="572" type="line"/>
      <point x="787" y="572" type="line"/>
    </contour>
    <contour>
      <point x="140" y="0" type="line"/>
      <point x="140" y="1456" type="line"/>
      <point x="562" y="1456" type="line"/>
      <point x="562" y="0" type="line"/>
    </contour>
  </outline>
</glyph>
<glyph name="Obarcyr" format="2">
  <advance width="1552"/>
  <guideline x="292" y="728" angle="90" identifier="KBWqLT8wSh"/>
  <guideline x="1261" y="728" angle="90" identifier="OIVTAQUznK"/>
  <outline>
    <contour>
      <point x="292" y="880" type="line"/>
      <point x="1260" y="880" type="line"/>
      <point x="1260" y="612" type="line"/>
      <point x="292" y="612" type="line"/>
    </contour>
    <contour>
      <point x="84" y="683" type="qcurve" smooth="yes"/>
      <point x="84" y="773" type="line" smooth="yes"/>
      <point x="84" y="1133.0"/>
      <point x="468.0" y="1485.0"/>
      <point x="773" y="1485" type="qcurve" smooth="yes"/>
      <point x="1077.0" y="1485.0"/>
      <point x="1468" y="1133.0"/>
      <point x="1468" y="773" type="qcurve" smooth="yes"/>
      <point x="1468" y="683" type="line" smooth="yes"/>
      <point x="1468" y="323.0"/>
      <point x="1077.0" y="-29.0"/>
      <point x="773" y="-29" type="qcurve" smooth="yes"/>
      <point x="468.0" y="-29.0"/>
      <point x="84" y="323.0"/>
    </contour>
    <contour>
      <point x="500" y="627" type="line" smooth="yes"/>
      <point x="500" y="430.0"/>
      <point x="645.0984251968504" y="278.0"/>
      <point x="773" y="278" type="qcurve" smooth="yes"/>
      <point x="901.2758620689655" y="278.0"/>
      <point x="1052" y="430.0"/>
      <point x="1052" y="627" type="qcurve" smooth="yes"/>
      <point x="1052" y="828" type="line" smooth="yes"/>
      <point x="1052" y="1026.0"/>
      <point x="901.2758620689655" y="1177.0"/>
      <point x="773" y="1177" type="qcurve" smooth="yes"/>
      <point x="645.0984251968504" y="1177.0"/>
      <point x="500" y="1026.0"/>
      <point x="500" y="828" type="qcurve" smooth="yes"/>
    </contour>
  </outline>
</glyph>
<glyph name="Soft" format="2">
  <advance width="1376"/>
  <outline>
    <contour>
      <point x="140" y="1456" type="line"/>
      <point x="140" y="0" type="line"/>
      <point x="765" y="0" type="line" smooth="yes"/>
      <point x="1077.0" y="0"/>
      <point x="1326.0" y="264.42976939203356"/>
      <point x="1326" y="487" type="qcurve" smooth="yes"/>
      <point x="1326.0" y="703.4444444444445"/>
      <point x="1077.0" y="974"/>
      <point x="766" y="974" type="qcurve" smooth="yes"/>
      <point x="562" y="974" type="line"/>
      <point x="562" y="1456" type="line"/>
    </contour>
    <contour>
      <point x="562" y="672" type="line"/>
      <point x="719" y="672" type="line" smooth="yes"/>
      <point x="812.0" y="672.0"/>
      <point x="905.0" y="581.0857142857143"/>
      <point x="905" y="487" type="qcurve" smooth="yes"/>
      <point x="905.0" y="383.4"/>
      <point x="812.0" y="302.0"/>
      <point x="718" y="302" type="qcurve" smooth="yes"/>
      <point x="562" y="302" type="line"/>
    </contour>
  </outline>
</glyph>
<glyph name="be" format="2">
  <advance width="1302"/>
  <outline>
    <contour>
      <point x="479" y="522" type="qcurve" smooth="yes"/>
      <point x="479" y="490" type="line" smooth="yes"/>
      <point x="479" y="357"/>
      <point x="565.5029239766081" y="269.0"/>
      <point x="651" y="269" type="qcurve" smooth="yes"/>
      <point x="736" y="269.0"/>
      <point x="822" y="357"/>
      <point x="822" y="490" type="qcurve" smooth="yes"/>
      <point x="822" y="522" type="line" smooth="yes"/>
      <point x="822.0" y="640.0"/>
      <point x="736.0" y="730.0"/>
      <point x="653" y="730" type="qcurve" smooth="yes"/>
      <point x="567.0" y="730.0"/>
      <point x="479.0" y="640.0"/>
    </contour>
    <contour>
      <point x="768" y="1024.0" type="qcurve" smooth="yes"/>
      <point x="991" y="1024"/>
      <point x="1241" y="754.8500881834216"/>
      <point x="1241" y="522" type="qcurve" smooth="yes"/>
      <point x="1241" y="490" type="line" smooth="yes"/>
      <point x="1241.0" y="251.0"/>
      <point x="911" y="-30"/>
      <point x="654" y="-30" type="qcurve" smooth="yes"/>
      <point x="384" y="-30"/>
      <point x="61" y="251"/>
      <point x="61" y="525" type="qcurve" smooth="yes"/>
      <point x="61" y="741" type="line" smooth="yes"/>
      <point x="61" y="1067.742900857908"/>
      <point x="336.95762738381046" y="1417.9936363470192"/>
      <point x="610" y="1459" type="qcurve" smooth="yes"/>
      <point x="762.7999895768564" y="1481.969933073645"/>
      <point x="812.2951607655953" y="1509.6529002873338"/>
      <point x="817" y="1536" type="qcurve"/>
      <point x="1201" y="1536" type="line"/>
      <point x="1194.7569886746367" y="1334.1426338132492"/>
      <point x="1007.0568877513317" y="1183.0077795215495"/>
      <point x="773" y="1151" type="qcurve" smooth="yes"/>
      <point x="577.0677094942752" y="1123.0096727848963"/>
      <point x="419.8266889327493" y="1005.5909761652149"/>
      <point x="410" y="869" type="qcurve"/>
      <point x="421" y="870" type="line"/>
      <point x="469.17156677176" y="941.7658035579282"/>
      <point x="649" y="1024"/>
    </contour>
  </outline>
</glyph>
<glyph name="breve.cyr.case" format="2">
  <advance width="1023"/>
  <outline>
    <contour>
      <point x="514" y="1640" type="qcurve" smooth="yes"/>
      <point x="362" y="1640"/>
      <point x="132" y="1777"/>
      <point x="75" y="1942" type="qcurve"/>
      <point x="278" y="2044" type="line"/>
      <point x="303" y="1933"/>
      <point x="420" y="1838"/>
      <point x="514" y="1838" type="qcurve" smooth="yes"/>
      <point x="604" y="1838"/>
      <point x="715" y="1933"/>
      <point x="741" y="2044" type="qcurve"/>
      <point x="948" y="1942" type="line"/>
      <point x="890" y="1776"/>
      <point x="664" y="1640"/>
    </contour>
  </outline>
</glyph>
<glyph name="breve.cyr" format="2">
  <advance width="1062"/>
  <outline>
    <contour>
      <point x="514" y="1198" type="qcurve" smooth="yes"/>
      <point x="374.6990291262136" y="1198.0"/>
      <point x="142.08882416672043" y="1333.682009483141"/>
      <point x="92" y="1513" type="qcurve"/>
      <point x="331" y="1602" type="line"/>
      <point x="344" y="1488"/>
      <point x="434.9577464788732" y="1391.0"/>
      <point x="514" y="1391" type="qcurve" smooth="yes"/>
      <point x="597.7117117117117" y="1391.0"/>
      <point x="702" y="1487"/>
      <point x="716" y="1602" type="qcurve"/>
      <point x="935" y="1513" type="line"/>
      <point x="884.9109573128512" y="1333.6812271800072"/>
      <point x="654.3333333333333" y="1198.0"/>
    </contour>
  </outline>
</glyph>
<glyph name="commaaccentcomb.case" format="2">
	<advance width="1024"/>
	<outline>
		<contour>
			<point x="232" y="-670" type="line"/>
			<point x="266" y="-548"/>
			<point x="308" y="-385"/>
			<point x="334" y="-236" type="qcurve"/>
			<point x="730" y="-233" type="line"/>
			<point x="583" y="-673" type="line"/>
		</contour>
	</outline>
</glyph>
<glyph name="diagonalbaro" format="2">
  <advance width="512"/>
  <outline>
    <contour>
      <point x="-138.0" y="-118.0" type="line"/>
      <point x="-54.0" y="89.0" type="line"/>
      <point x="-16.0" y="84.0" type="line"/>
      <point x="185.0" y="584.0" type="line"/>
      <point x="344.0" y="514.0" type="line"/>
      <point x="161.0" y="55.0" type="line"/>
      <point x="201.0" y="51.0" type="line"/>
      <point x="127.0" y="-123.0" type="line"/>
    </contour>
    <contour>
      <point x="368.0" y="1144.0" type="line"/>
      <point x="639.0" y="1141.0" type="line"/>
      <point x="561.0" y="948.0" type="line"/>
      <point x="520.0" y="953.0" type="line"/>
      <point x="344.0" y="514.0" type="line"/>
      <point x="185.0" y="584.0" type="line"/>
      <point x="344.0" y="981.0" type="line"/>
      <point x="304.0" y="987.0" type="line"/>
    </contour>
  </outline>
</glyph>
<glyph name="dieresiscomb.case" format="2">
  <advance width="1024"/>
  <outline>
    <contour>
      <point x="60" y="1829" type="qcurve" smooth="yes"/>
      <point x="60" y="1904"/>
      <point x="161" y="2004"/>
      <point x="255" y="2004" type="qcurve" smooth="yes"/>
      <point x="348" y="2004"/>
      <point x="450" y="1904"/>
      <point x="450" y="1829" type="qcurve" smooth="yes"/>
      <point x="450" y="1755"/>
      <point x="348" y="1654"/>
      <point x="254" y="1654" type="qcurve" smooth="yes"/>
      <point x="160" y="1654"/>
      <point x="60" y="1755"/>
    </contour>
    <contour>
      <point x="573" y="1829" type="qcurve" smooth="yes"/>
      <point x="573" y="1904"/>
      <point x="674" y="2004"/>
      <point x="768" y="2004" type="qcurve" smooth="yes"/>
      <point x="862" y="2004"/>
      <point x="964" y="1904"/>
      <point x="964" y="1829" type="qcurve" smooth="yes"/>
      <point x="964" y="1755"/>
      <point x="862" y="1654"/>
      <point x="767" y="1654" type="qcurve" smooth="yes"/>
      <point x="673" y="1654"/>
      <point x="573" y="1755"/>
    </contour>
  </outline>
</glyph>
<glyph name="ecyr" format="2">
  <advance width="1205"/>
  <guideline x="889" y="493" angle="90" identifier="9ss4WcbEUf"/>
  <outline>
    <contour>
      <point x="1144" y="514" type="line" smooth="yes"/>
      <point x="1144" y="253.0"/>
      <point x="835.358361774744" y="-30.0"/>
      <point x="568" y="-30" type="qcurve" smooth="yes"/>
      <point x="313.2919020715631" y="-30.0"/>
      <point x="27" y="213.0"/>
      <point x="27" y="386" type="qcurve" smooth="yes"/>
      <point x="27" y="406" type="line"/>
      <point x="415" y="406" type="line"/>
      <point x="415.0" y="397" type="line" smooth="yes"/>
      <point x="415.0" y="328.0"/>
      <point x="481" y="248"/>
      <point x="569" y="248" type="qcurve" smooth="yes"/>
      <point x="659" y="248"/>
      <point x="736" y="349.0"/>
      <point x="736" y="481" type="qcurve" smooth="yes"/>
      <point x="736" y="579" type="line" smooth="yes"/>
      <point x="736.0" y="719.0"/>
      <point x="647" y="810"/>
      <point x="568" y="810" type="qcurve" smooth="yes"/>
      <point x="494" y="810.0"/>
      <point x="414" y="740.0"/>
      <point x="414.0" y="662" type="qcurve" smooth="yes"/>
      <point x="414" y="652" type="line"/>
      <point x="25" y="652" type="line"/>
      <point x="28" y="683" type="line" smooth="yes"/>
      <point x="44.843188936921536" y="857.0462856815225"/>
      <point x="314.3018867924528" y="1089.0"/>
      <point x="568" y="1089" type="qcurve" smooth="yes"/>
      <point x="836.3412969283277" y="1089.0"/>
      <point x="1144" y="807.0"/>
      <point x="1144" y="546" type="qcurve" smooth="yes"/>
    </contour>
    <contour>
      <point x="853" y="650" type="line"/>
      <point x="853" y="425" type="line"/>
      <point x="472" y="425" type="line"/>
      <point x="472" y="650" type="line"/>
    </contour>
  </outline>
</glyph>
<glyph name="em" format="2">
  <advance width="1681"/>
  <outline>
    <contour>
      <point x="148" y="0" type="line"/>
      <point x="148" y="1058" type="line"/>
      <point x="695" y="1058" type="line"/>
      <point x="819" y="628" type="line" smooth="yes"/>
      <point x="838" y="562"/>
      <point x="849" y="512"/>
      <point x="853" y="488" type="qcurve"/>
      <point x="861" y="488" type="line"/>
      <point x="865" y="512"/>
      <point x="875" y="558"/>
      <point x="894" y="627" type="qcurve" smooth="yes"/>
      <point x="1015" y="1058" type="line"/>
      <point x="1569" y="1058" type="line"/>
      <point x="1569" y="0" type="line"/>
      <point x="1161" y="0" type="line"/>
      <point x="1161" y="542" type="line" smooth="yes"/>
      <point x="1161" y="611"/>
      <point x="1164" y="677"/>
      <point x="1166" y="702" type="qcurve"/>
      <point x="1157" y="702" type="line"/>
      <point x="1151" y="678"/>
      <point x="1135" y="616"/>
      <point x="1114" y="545" type="qcurve" smooth="yes"/>
      <point x="950" y="0" type="line"/>
      <point x="679" y="0" type="line"/>
      <point x="514" y="548" type="line" smooth="yes"/>
      <point x="495" y="610"/>
      <point x="479" y="677"/>
      <point x="473" y="702" type="qcurve"/>
      <point x="463" y="702" type="line"/>
      <point x="464" y="677"/>
      <point x="468" y="615"/>
      <point x="468" y="549" type="qcurve" smooth="yes"/>
      <point x="468" y="0" type="line"/>
    </contour>
  </outline>
</glyph>
<glyph name="ghe.bgr" format="2">
  <advance width="1160"/>
  <outline>
    <contour>
      <point x="1112" y="355" type="line"/>
      <point x="714" y="353" type="line"/>
      <point x="714.0" y="327" type="line" smooth="yes"/>
      <point x="714.0" y="277.0"/>
      <point x="654" y="225"/>
      <point x="587" y="225" type="qcurve" smooth="yes"/>
      <point x="522.0" y="225.0"/>
      <point x="471.0" y="270"/>
      <point x="471" y="301" type="qcurve" smooth="yes"/>
      <point x="471" y="341"/>
      <point x="548.0737529300069" y="381.8408900738662"/>
      <point x="712" y="410" type="qcurve" smooth="yes"/>
      <point x="927.8235384564277" y="446.96977279114736"/>
      <point x="1093.0" y="607"/>
      <point x="1093" y="744" type="qcurve" smooth="yes"/>
      <point x="1093" y="902"/>
      <point x="834" y="1089.0"/>
      <point x="593" y="1089" type="qcurve" smooth="yes"/>
      <point x="367.0" y="1089.0"/>
      <point x="90" y="904.0"/>
      <point x="90" y="727" type="qcurve" smooth="yes"/>
      <point x="90" y="713" type="line"/>
      <point x="487" y="713" type="line"/>
      <point x="487.0" y="733" type="line" smooth="yes"/>
      <point x="487" y="779"/>
      <point x="540" y="831.0"/>
      <point x="597" y="831" type="qcurve" smooth="yes"/>
      <point x="648" y="831"/>
      <point x="696" y="799"/>
      <point x="696" y="767" type="qcurve" smooth="yes"/>
      <point x="696.0" y="732"/>
      <point x="603" y="691"/>
      <point x="471" y="669" type="qcurve" smooth="yes"/>
      <point x="252.51242969329354" y="632.2352646118522"/>
      <point x="65.0" y="480.76895306859205"/>
      <point x="65" y="339" type="qcurve" smooth="yes"/>
      <point x="65.0" y="163"/>
      <point x="323" y="-30.0"/>
      <point x="584" y="-30" type="qcurve" smooth="yes"/>
      <point x="841.4545454545455" y="-30.0"/>
      <point x="1112.0" y="159.0"/>
      <point x="1112" y="329" type="qcurve" smooth="yes"/>
    </contour>
  </outline>
</glyph>
<glyph name="hadescender" format="2">
	<advance width="1061"/>
	<outline>
		<contour>
			<point x="1" y="0" type="line"/>
			<point x="333" y="628" type="line"/>
			<point x="441" y="628" type="line"/>
			<point x="656" y="1058" type="line"/>
			<point x="1012" y="1058" type="line"/>
			<point x="685" y="452" type="line"/>
			<point x="571" y="452" type="line"/>
			<point x="357" y="0" type="line"/>
		</contour>
		<contour>
			<point x="8" y="1058" type="line"/>
			<point x="472" y="1058" type="line"/>
			<point x="680" y="631" type="line"/>
			<point x="701" y="631" type="line"/>
			<point x="986" y="107" type="line"/>
			<point x="986" y="0" type="line"/>
			<point x="581" y="0" type="line"/>
			<point x="355" y="455" type="line"/>
			<point x="335" y="455" type="line"/>
		</contour>
		<contour>
			<point x="581" y="300" type="line"/>
			<point x="1061" y="300" type="line"/>
			<point x="1061" y="-270" type="line"/>
			<point x="671" y="-270" type="line"/>
			<point x="671" y="0" type="line"/>
			<point x="581" y="0" type="line"/>
		</contour>
	</outline>
</glyph>
<glyph name="hryvnia" format="2">
	<advance width="1512"/>
	<outline>
		<contour>
			<point x="1454" y="684" type="line"/>
			<point x="48" y="684" type="line"/>
			<point x="48" y="479" type="line"/>
			<point x="1454" y="479" type="line"/>
		</contour>
		<contour>
			<point x="1454" y="976" type="line"/>
			<point x="48" y="976" type="line"/>
			<point x="48" y="771" type="line"/>
			<point x="1454" y="771" type="line"/>
		</contour>
		<contour>
			<point x="1362" y="1104" type="qcurve" smooth="yes"/>
			<point x="1362" y="1288"/>
			<point x="1047" y="1485"/>
			<point x="764" y="1485" type="qcurve" smooth="yes"/>
			<point x="484" y="1485"/>
			<point x="171" y="1271"/>
			<point x="171" y="1069" type="qcurve" smooth="yes"/>
			<point x="171" y="1058" type="line"/>
			<point x="593" y="1058" type="line"/>
			<point x="593" y="1065" type="line" smooth="yes"/>
			<point x="593" y="1131"/>
			<point x="676" y="1192"/>
			<point x="761" y="1192" type="qcurve" smooth="yes"/>
			<point x="844" y="1192"/>
			<point x="925" y="1129"/>
			<point x="925" y="1076" type="qcurve" smooth="yes"/>
			<point x="925" y="1041"/>
			<point x="902" y="986"/>
			<point x="878" y="961" type="qcurve"/>
			<point x="1337" y="961" type="line"/>
			<point x="1351" y="991"/>
			<point x="1362" y="1061"/>
		</contour>
		<contour>
			<point x="1376" y="399" type="line"/>
			<point x="943" y="399" type="line"/>
			<point x="943" y="394" type="line" smooth="yes"/>
			<point x="943" y="335"/>
			<point x="854" y="272"/>
			<point x="759" y="272" type="qcurve" smooth="yes"/>
			<point x="659" y="272"/>
			<point x="574" y="347"/>
			<point x="574" y="405" type="qcurve" smooth="yes"/>
			<point x="574" y="435"/>
			<point x="589" y="482"/>
			<point x="604" y="507" type="qcurve"/>
			<point x="164" y="507" type="line"/>
			<point x="154" y="478"/>
			<point x="143" y="415"/>
			<point x="143" y="380" type="qcurve" smooth="yes"/>
			<point x="143" y="172"/>
			<point x="468" y="-30"/>
			<point x="750" y="-30" type="qcurve" smooth="yes"/>
			<point x="1034" y="-30"/>
			<point x="1376" y="169"/>
			<point x="1376" y="387" type="qcurve" smooth="yes"/>
		</contour>
	</outline>
</glyph>
<glyph name="ka" format="2">
	<advance width="1228"/>
	<outline>
		<contour>
			<point x="826" y="0" type="line"/>
			<point x="542" y="479" type="line"/>
			<point x="867" y="605" type="line"/>
			<point x="1254" y="0" type="line"/>
		</contour>
		<contour>
			<point x="316" y="693" type="line"/>
			<point x="586" y="693" type="line"/>
			<point x="801" y="1058" type="line"/>
			<point x="1219" y="1058" type="line"/>
			<point x="794" y="388" type="line"/>
			<point x="316" y="388" type="line"/>
		</contour>
		<contour>
			<point x="520" y="1058" type="line"/>
			<point x="520" y="0" type="line"/>
			<point x="112" y="0" type="line"/>
			<point x="112" y="1058" type="line"/>
		</contour>
	</outline>
	<guideline x="241" y="553" angle="90" identifier="lmgRx0QBdK"/>
</glyph>
<glyph name="kaverticalstrokecyr" format="2">
  <advance width="1458"/>
  <guideline x="547" y="651" angle="90" identifier="ATaXbxe4rK"/>
  <outline>
    <contour>
      <point x="816" y="860" type="line"/>
      <point x="816" y="204" type="line"/>
      <point x="580" y="204" type="line"/>
      <point x="580" y="860" type="line"/>
    </contour>
    <contour>
      <point x="520" y="1058" type="line"/>
      <point x="520" y="0" type="line"/>
      <point x="112" y="0" type="line"/>
      <point x="112" y="1058" type="line"/>
    </contour>
    <contour>
      <point x="1056" y="0" type="line"/>
      <point x="772" y="479" type="line"/>
      <point x="1098" y="605" type="line"/>
      <point x="1484" y="0" type="line"/>
    </contour>
    <contour>
      <point x="697" y="693" type="line"/>
      <point x="826" y="693" type="line"/>
      <point x="1031" y="1058" type="line"/>
      <point x="1448" y="1058" type="line"/>
      <point x="1034" y="388" type="line"/>
      <point x="697" y="388" type="line"/>
    </contour>
  </outline>
</glyph>
<glyph name="seven.prop" format="2">
	<advance width="1090"/>
	<outline>
		<contour>
			<point x="156" y="0" type="line"/>
			<point x="609" y="1111" type="line"/>
			<point x="19" y="1111" type="line"/>
			<point x="19" y="1456" type="line"/>
			<point x="1045" y="1456" type="line"/>
			<point x="1045" y="1156" type="line"/>
			<point x="608" y="0" type="line"/>
		</contour>
	</outline>
</glyph>
<glyph name="sha.bgr" format="2">
	<advance width="1930"/>
	<outline>
		<contour>
			<point x="1818" y="1058" type="line"/>
			<point x="1818" y="0" type="line"/>
			<point x="1423" y="0" type="line"/>
			<point x="1418" y="106" type="line"/>
			<point x="1412" y="106" type="line"/>
			<point x="1369" y="40"/>
			<point x="1212" y="-21"/>
			<point x="1124" y="-21" type="qcurve" smooth="yes"/>
			<point x="1023" y="-21"/>
			<point x="864" y="68"/>
			<point x="817" y="165" type="qcurve"/>
			<point x="815" y="165" type="line"/>
			<point x="770" y="75"/>
			<point x="598" y="-21"/>
			<point x="466" y="-21" type="qcurve" smooth="yes"/>
			<point x="279" y="-21"/>
			<point x="102" y="193.8766519824"/>
			<point x="102" y="405" type="qcurve" smooth="yes"/>
			<point x="102" y="1058" type="line"/>
			<point x="511" y="1058" type="line"/>
			<point x="511" y="423" type="line" smooth="yes"/>
			<point x="511" y="347"/>
			<point x="565" y="279"/>
			<point x="619" y="279" type="qcurve" smooth="yes"/>
			<point x="665" y="279"/>
			<point x="737" y="336"/>
			<point x="756" y="384" type="qcurve"/>
			<point x="756" y="1058" type="line"/>
			<point x="1165" y="1058" type="line"/>
			<point x="1165" y="423" type="line" smooth="yes"/>
			<point x="1165" y="349"/>
			<point x="1220" y="279"/>
			<point x="1274" y="279" type="qcurve" smooth="yes"/>
			<point x="1321" y="279"/>
			<point x="1391" y="330"/>
			<point x="1410" y="384" type="qcurve"/>
			<point x="1410" y="1058" type="line"/>
		</contour>
	</outline>
</glyph>
<glyph name="tse.bgr" format="2">
  <advance width="1337"/>
  <outline>
    <contour>
      <point x="102" y="458" type="qcurve" smooth="yes"/>
      <point x="102" y="1058" type="line"/>
      <point x="511" y="1058" type="line"/>
      <point x="511" y="431" type="line" smooth="yes"/>
      <point x="511" y="343"/>
      <point x="571" y="279"/>
      <point x="622" y="279" type="qcurve" smooth="yes"/>
      <point x="668" y="279"/>
      <point x="747" y="339"/>
      <point x="764" y="384" type="qcurve"/>
      <point x="764" y="1058" type="line"/>
      <point x="1172" y="1058" type="line"/>
      <point x="1172" y="300" type="line"/>
      <point x="1327" y="300" type="line"/>
      <point x="1327" y="-270" type="line"/>
      <point x="937" y="-270" type="line"/>
      <point x="937" y="0" type="line"/>
      <point x="777" y="0" type="line"/>
      <point x="771" y="102" type="line"/>
      <point x="766" y="102" type="line"/>
      <point x="729" y="43"/>
      <point x="569" y="-21"/>
      <point x="478" y="-21" type="qcurve" smooth="yes"/>
      <point x="322" y="-21"/>
      <point x="102" y="189"/>
    </contour>
  </outline>
</glyph>
<glyph name="ve" format="2">
  <advance width="1237"/>
  <outline>
    <contour>
      <point x="112" y="0" type="line"/>
      <point x="112" y="1058" type="line"/>
      <point x="716" y="1058" type="line" smooth="yes"/>
      <point x="947.0" y="1058"/>
      <point x="1140.0" y="927.0923076923077"/>
      <point x="1140" y="804" type="qcurve" smooth="yes"/>
      <point x="1140.0" y="693.3870967741935"/>
      <point x="1021.097132607015" y="571.0190634088534"/>
      <point x="914" y="550" type="qcurve"/>
      <point x="914" y="547" type="line"/>
      <point x="1044" y="527"/>
      <point x="1177.0" y="401.0"/>
      <point x="1177" y="290" type="qcurve" smooth="yes"/>
      <point x="1177" y="154"/>
      <point x="982" y="0"/>
      <point x="767" y="0" type="qcurve" smooth="yes"/>
    </contour>
    <contour>
      <point x="510" y="195" type="line"/>
      <point x="647" y="195" type="line" smooth="yes"/>
      <point x="715.0" y="195"/>
      <point x="768.0" y="265.87603305785126"/>
      <point x="768" y="323" type="qcurve" smooth="yes"/>
      <point x="768.0" y="378.89473684210526"/>
      <point x="715.0" y="449"/>
      <point x="647" y="449" type="qcurve" smooth="yes"/>
      <point x="510" y="449" type="line"/>
    </contour>
    <contour>
      <point x="510" y="633" type="line"/>
      <point x="617" y="633" type="line" smooth="yes"/>
      <point x="676.6388888888889" y="633"/>
      <point x="730.0" y="694.5"/>
      <point x="730" y="756" type="qcurve" smooth="yes"/>
      <point x="730.0" y="807.4423076923077"/>
      <point x="676.6388888888889" y="863"/>
      <point x="617" y="863" type="qcurve" smooth="yes"/>
      <point x="510" y="863" type="line"/>
    </contour>
  </outline>
</glyph>
<glyph name="yi" format="2">
  <advance width="632"/>
  <outline>
    <contour>
      <point x="112" y="0" type="line"/>
      <point x="112" y="1058" type="line"/>
      <point x="520" y="1058" type="line"/>
      <point x="520" y="0" type="line"/>
    </contour>
    <contour>
      <point x="26" y="1322" type="qcurve" smooth="yes"/>
      <point x="26.0" y="1411.111650485437"/>
      <point x="95.0" y="1533.0"/>
      <point x="161" y="1533" type="qcurve" smooth="yes"/>
      <point x="228.0" y="1533.0"/>
      <point x="297.0" y="1411.111650485437"/>
      <point x="297" y="1322" type="qcurve" smooth="yes"/>
      <point x="297.0" y="1234.122641509434"/>
      <point x="228.0" y="1115.0"/>
      <point x="161" y="1115" type="qcurve" smooth="yes"/>
      <point x="95.0" y="1115.0"/>
      <point x="26.0" y="1234.122641509434"/>
    </contour>
    <contour>
      <point x="335" y="1322" type="qcurve" smooth="yes"/>
      <point x="335.0" y="1411.111650485437"/>
      <point x="404.0" y="1533.0"/>
      <point x="470" y="1533" type="qcurve" smooth="yes"/>
      <point x="537.0" y="1533.0"/>
      <point x="606.0" y="1411.111650485437"/>
      <point x="606" y="1322" type="qcurve" smooth="yes"/>
      <point x="606.0" y="1234.122641509434"/>
      <point x="537.0" y="1115.0"/>
      <point x="470" y="1115" type="qcurve" smooth="yes"/>
      <point x="404.0" y="1115.0"/>
      <point x="335.0" y="1234.122641509434"/>
    </contour>
  </outline>
</glyph>
<glyph name="ze.bgr" format="2">
  <advance width="1182"/>
  <guideline x="560" y="-430" angle="0" identifier="zadeUdKR9h"/>
  <outline>
    <contour>
      <point x="5" y="24" type="qcurve" smooth="yes"/>
      <point x="5" y="34" type="line"/>
      <point x="403" y="34" type="line"/>
      <point x="403" y="24" type="line" smooth="yes"/>
      <point x="403" y="-55.0"/>
      <point x="486" y="-131.0"/>
      <point x="563" y="-131" type="qcurve" smooth="yes"/>
      <point x="641" y="-131"/>
      <point x="716.0" y="-55.0"/>
      <point x="716" y="30" type="qcurve" smooth="yes"/>
      <point x="716.0" y="119.97802197802197"/>
      <point x="637.0" y="214"/>
      <point x="522" y="214" type="qcurve" smooth="yes"/>
      <point x="424" y="214" type="line"/>
      <point x="424" y="514" type="line"/>
      <point x="518" y="514" type="line" smooth="yes"/>
      <point x="597.0" y="514.0"/>
      <point x="666.0" y="598.077922077922"/>
      <point x="666" y="670" type="qcurve" smooth="yes"/>
      <point x="666.0" y="732.5"/>
      <point x="609.0" y="789.0"/>
      <point x="560" y="789" type="qcurve" smooth="yes"/>
      <point x="502.0" y="789.0"/>
      <point x="443" y="732.5"/>
      <point x="443" y="671" type="qcurve" smooth="yes"/>
      <point x="443" y="661" type="line"/>
      <point x="45" y="661" type="line"/>
      <point x="45" y="671" type="line" smooth="yes"/>
      <point x="45" y="867.0"/>
      <point x="342.08527131782944" y="1089.0"/>
      <point x="581" y="1089" type="qcurve" smooth="yes"/>
      <point x="802.2213740458016" y="1089.0"/>
      <point x="1085.0" y="896"/>
      <point x="1085" y="697" type="qcurve" smooth="yes"/>
      <point x="1085" y="598"/>
      <point x="972" y="423"/>
      <point x="832" y="366" type="qcurve"/>
      <point x="832" y="362" type="line"/>
      <point x="969" y="332"/>
      <point x="1137" y="159"/>
      <point x="1137" y="1" type="qcurve" smooth="yes"/>
      <point x="1137" y="-214"/>
      <point x="823" y="-430"/>
      <point x="581" y="-430" type="qcurve" smooth="yes"/>
      <point x="304" y="-430"/>
      <point x="5" y="-195"/>
    </contour>
  </outline>
</glyph>
<glyph name="zerosuperior" format="2">
  <advance width="876"/>
  <outline>
    <contour>
      <point x="58.265822784810126" y="952.4153846153846" type="qcurve" smooth="yes"/>
      <point x="58.265822784810126" y="1192.8153846153846" type="line" smooth="yes"/>
      <point x="58.265822784810126" y="1329.646153846154"/>
      <point x="267.67400194741964" y="1478.4615384615383"/>
      <point x="439.05024342745855" y="1478.4615384615383" type="qcurve" smooth="yes"/>
      <point x="610.4264849074976" y="1478.4615384615383"/>
      <point x="818.6229795520935" y="1329.646153846154"/>
      <point x="818.6229795520935" y="1192.8153846153846" type="qcurve" smooth="yes"/>
      <point x="818.6229795520935" y="952.4153846153846" type="line" smooth="yes"/>
      <point x="818.6229795520935" y="813.3846153846154"/>
      <point x="610.4264849074976" y="662.4615384615385"/>
      <point x="439.05024342745855" y="662.4615384615385" type="qcurve" smooth="yes"/>
      <point x="267.6740019474197" y="662.4615384615385"/>
      <point x="58.265822784810126" y="813.3846153846154"/>
    </contour>
    <contour>
      <point x="370.0736124634859" y="934.676923076923" type="line" smooth="yes"/>
      <point x="370.0736124634859" y="905.5384615384615"/>
      <point x="404.3425511197663" y="884.5846153846154"/>
      <point x="439.05024342745855" y="884.5846153846154" type="qcurve" smooth="yes"/>
      <point x="473.7579357351509" y="884.5846153846154"/>
      <point x="506.81518987341775" y="905.5384615384615"/>
      <point x="506.81518987341775" y="934.676923076923" type="qcurve" smooth="yes"/>
      <point x="506.81518987341775" y="1205.0153846153846" type="line" smooth="yes"/>
      <point x="506.81518987341775" y="1234.153846153846"/>
      <point x="474.12716650438165" y="1256.3384615384616"/>
      <point x="439.05024342745855" y="1256.3384615384616" type="qcurve" smooth="yes"/>
      <point x="403.9733203505355" y="1256.3384615384616"/>
      <point x="370.0736124634859" y="1234.153846153846"/>
      <point x="370.0736124634859" y="1205.0153846153846" type="qcurve" smooth="yes"/>
    </contour>
  </outline>
</glyph>
<glyph name="zhe.bgr" format="2">
	<advance width="1686"/>
	<outline>
		<contour>
			<point x="1250" y="0" type="line"/>
			<point x="1004" y="500" type="line"/>
			<point x="1267" y="794" type="line"/>
			<point x="1732" y="0" type="line"/>
		</contour>
		<contour>
			<point x="436" y="0" type="line"/>
			<point x="-46" y="0" type="line"/>
			<point x="419" y="794" type="line"/>
			<point x="682" y="500" type="line"/>
		</contour>
		<contour>
			<point x="639" y="0" type="line"/>
			<point x="639" y="317" type="line"/>
			<point x="-29" y="1058" type="line"/>
			<point x="434" y="1058" type="line"/>
			<point x="639" y="790" type="line"/>
			<point x="639" y="1526" type="line"/>
			<point x="1047" y="1526" type="line"/>
			<point x="1047" y="790" type="line"/>
			<point x="1252" y="1058" type="line"/>
			<point x="1695" y="1058" type="line"/>
			<point x="1047" y="316" type="line"/>
			<point x="1047" y="0" type="line"/>
		</contour>
	</outline>
</glyph>
